<?xml version="1.0" encoding="utf-8"?>
<!-- Generated by IcoMoon.io -->
<!DOCTYPE svg PUBLIC "-//W3C//DTD SVG 1.1//EN" "http://www.w3.org/Graphics/SVG/1.1/DTD/svg11.dtd">
<svg version="1.1" xmlns="http://www.w3.org/2000/svg" xmlns:xlink="http://www.w3.org/1999/xlink" width="16" height="16" viewBox="0 0 16 16">
<path d="M3.625 2v14h10.5v-14h-10.5zM8.875 5.505c0.964 0 1.745 0.781 1.745 1.745s-0.781 1.745-1.745 1.745-1.745-0.781-1.745-1.745 0.781-1.745 1.745-1.745v0zM11.5 12.5h-5.25v-0.875c0-0.967 0.783-1.75 1.75-1.75v0h1.75c0.967 0 1.75 0.783 1.75 1.75v0.875z"></path>
<path d="M1.875 2.875h1.313v2.625h-1.313v-2.625z"></path>
<path d="M1.875 6.375h1.313v2.625h-1.313v-2.625z"></path>
<path d="M1.875 9.875h1.313v2.625h-1.313v-2.625z"></path>
<path d="M1.875 13.375h1.313v2.625h-1.313v-2.625z"></path>
</svg>
