<?xml version="1.0" encoding="utf-8"?>
<!-- Generated by IcoMoon.io -->
<!DOCTYPE svg PUBLIC "-//W3C//DTD SVG 1.1//EN" "http://www.w3.org/Graphics/SVG/1.1/DTD/svg11.dtd">
<svg version="1.1" xmlns="http://www.w3.org/2000/svg" xmlns:xlink="http://www.w3.org/1999/xlink" width="16" height="16" viewBox="0 0 16 16">
<path d="M10.118 5.973l-0.894-0.894-4.472 4.471c-0.741 0.741-0.741 1.942 0 2.683s1.942 0.741 2.683 0l5.367-5.366c1.235-1.235 1.235-3.237 0-4.471s-3.237-1.235-4.472 0l-5.635 5.634c-0.004 0.004-0.008 0.008-0.012 0.012-1.723 1.722-1.723 4.514 0 6.236s4.514 1.722 6.237 0c0.004-0.004 0.007-0.008 0.011-0.012l0 0 3.846-3.846-0.895-0.894-3.846 3.845c-0.004 0.004-0.008 0.008-0.012 0.012-1.226 1.226-3.222 1.226-4.449 0s-1.226-3.221 0-4.447c0.004-0.004 0.008-0.008 0.012-0.012l-0.001-0.001 5.635-5.634c0.74-0.74 1.943-0.74 2.683 0s0.74 1.944 0 2.683l-5.367 5.366c-0.247 0.247-0.648 0.247-0.895 0s-0.246-0.648 0-0.894l4.472-4.472z"></path>
</svg>
