<?xml version="1.0" encoding="utf-8"?>
<!-- Generated by IcoMoon.io -->
<!DOCTYPE svg PUBLIC "-//W3C//DTD SVG 1.1//EN" "http://www.w3.org/Graphics/SVG/1.1/DTD/svg11.dtd">
<svg version="1.1" xmlns="http://www.w3.org/2000/svg" xmlns:xlink="http://www.w3.org/1999/xlink" width="16" height="16" viewBox="0 0 16 16">
<path d="M2.75 6.375v8.75c0 0.481 0.394 0.875 0.875 0.875h7.875c0.481 0 0.875-0.394 0.875-0.875v-8.75h-9.625zM5.375 14.25h-0.875v-6.125h0.875v6.125zM7.125 14.25h-0.875v-6.125h0.875v6.125zM8.875 14.25h-0.875v-6.125h0.875v6.125zM10.625 14.25h-0.875v-6.125h0.875v6.125z"></path>
<path d="M12.594 3.75h-2.844v-1.094c0-0.361-0.295-0.656-0.656-0.656h-3.063c-0.361 0-0.656 0.295-0.656 0.656v1.094h-2.844c-0.361 0-0.656 0.295-0.656 0.656v1.094h11.375v-1.094c0-0.361-0.295-0.656-0.656-0.656zM8.875 3.75h-2.625v-0.864h2.625v0.864z"></path>
</svg>
