<?xml version="1.0" encoding="utf-8"?>
<!-- Generated by IcoMoon.io -->
<!DOCTYPE svg PUBLIC "-//W3C//DTD SVG 1.1//EN" "http://www.w3.org/Graphics/SVG/1.1/DTD/svg11.dtd">
<svg version="1.1" xmlns="http://www.w3.org/2000/svg" xmlns:xlink="http://www.w3.org/1999/xlink" width="16" height="16" viewBox="0 0 16 16">
<path d="M14.095 7.25h-0.785c-0.481 0-0.902-0.407-0.935-0.875v0c0-2.497-2.013-4.375-4.528-4.375h-2.294c-2.513 0-4.551 2.023-4.553 4.521v4.96c0 2.497 2.039 4.519 4.553 4.519h4.9c2.515 0 4.547-2.022 4.547-4.519v-3.204c0-0.499-0.402-1.027-0.905-1.027zM5.375 5.5h2.625c0.481 0 0.875 0.394 0.875 0.875s-0.394 0.875-0.875 0.875h-2.625c-0.481 0-0.875-0.394-0.875-0.875s0.394-0.875 0.875-0.875zM10.625 12.5h-5.25c-0.481 0-0.875-0.394-0.875-0.875s0.394-0.875 0.875-0.875h5.25c0.481 0 0.875 0.394 0.875 0.875s-0.394 0.875-0.875 0.875z"></path>
</svg>
