<?xml version="1.0" encoding="utf-8"?>
<!-- Generated by IcoMoon.io -->
<!DOCTYPE svg PUBLIC "-//W3C//DTD SVG 1.1//EN" "http://www.w3.org/Graphics/SVG/1.1/DTD/svg11.dtd">
<svg version="1.1" xmlns="http://www.w3.org/2000/svg" xmlns:xlink="http://www.w3.org/1999/xlink" width="16" height="16" viewBox="0 0 16 16">
<path d="M8 3.874c-0.801 0-1.575 0.126-2.3 0.375-0.681 0.234-1.288 0.565-1.803 0.984-0.966 0.785-1.497 1.793-1.497 2.841 0 0.588 0.163 1.158 0.485 1.694 0.332 0.553 0.831 1.059 1.444 1.462 0.443 0.292 0.741 0.758 0.819 1.282 0.026 0.175 0.043 0.351 0.049 0.527 0.109-0.090 0.215-0.187 0.319-0.291 0.352-0.352 0.828-0.547 1.32-0.547 0.078 0 0.157 0.005 0.236 0.015 0.306 0.039 0.618 0.059 0.929 0.059 0.801 0 1.575-0.126 2.3-0.375 0.681-0.234 1.288-0.565 1.803-0.984 0.966-0.784 1.497-1.793 1.497-2.841s-0.532-2.056-1.497-2.841c-0.515-0.418-1.122-0.749-1.803-0.984-0.725-0.249-1.499-0.375-2.3-0.375zM8 2.007v0c4.124 0 7.466 2.716 7.466 6.066s-3.343 6.066-7.466 6.066c-0.396 0-0.785-0.025-1.164-0.074-1.604 1.604-3.518 1.891-5.369 1.934v-0.393c0.999-0.49 1.867-1.382 1.867-2.401 0-0.142-0.011-0.282-0.032-0.418-1.689-1.112-2.768-2.811-2.768-4.715 0-3.35 3.343-6.066 7.466-6.066z"></path>
</svg>
