<?xml version="1.0" encoding="utf-8"?>
<!-- Generated by IcoMoon.io -->
<!DOCTYPE svg PUBLIC "-//W3C//DTD SVG 1.1//EN" "http://www.w3.org/Graphics/SVG/1.1/DTD/svg11.dtd">
<svg version="1.1" xmlns="http://www.w3.org/2000/svg" xmlns:xlink="http://www.w3.org/1999/xlink" width="16" height="16" viewBox="0 0 16 16">
<path d="M5.375 7.25h1.75v1.75h-1.75zM8 7.25h1.75v1.75h-1.75zM10.625 7.25h1.75v1.75h-1.75zM2.75 12.5h1.75v1.75h-1.75zM5.375 12.5h1.75v1.75h-1.75zM8 12.5h1.75v1.75h-1.75zM5.375 9.875h1.75v1.75h-1.75zM8 9.875h1.75v1.75h-1.75zM10.625 9.875h1.75v1.75h-1.75zM2.75 9.875h1.75v1.75h-1.75zM12.375 2v0.875h-1.75v-0.875h-6.125v0.875h-1.75v-0.875h-1.75v14h13.125v-14h-1.75zM13.25 15.125h-11.375v-9.625h11.375v9.625z"></path>
</svg>
