<?xml version="1.0" encoding="utf-8"?>
<!-- Generated by IcoMoon.io -->
<!DOCTYPE svg PUBLIC "-//W3C//DTD SVG 1.1//EN" "http://www.w3.org/Graphics/SVG/1.1/DTD/svg11.dtd">
<svg version="1.1" xmlns="http://www.w3.org/2000/svg" xmlns:xlink="http://www.w3.org/1999/xlink" width="16" height="16" viewBox="0 0 16 16">
<path d="M8 2c-3.866 0-7 3.134-7 7s3.134 7 7 7 7-3.134 7-7-3.134-7-7-7zM8 14.688c-3.141 0-5.688-2.546-5.688-5.688s2.546-5.688 5.688-5.688 5.688 2.546 5.688 5.688-2.546 5.688-5.688 5.688z"></path>
<path d="M10.188 5.5l-2.188 2.188-2.188-2.188-1.313 1.313 2.188 2.188-2.188 2.188 1.313 1.313 2.188-2.188 2.188 2.188 1.313-1.313-2.188-2.188 2.188-2.188z"></path>
</svg>
