<?xml version="1.0" encoding="utf-8"?>
<!-- Generated by IcoMoon.io -->
<!DOCTYPE svg PUBLIC "-//W3C//DTD SVG 1.1//EN" "http://www.w3.org/Graphics/SVG/1.1/DTD/svg11.dtd">
<svg version="1.1" xmlns="http://www.w3.org/2000/svg" xmlns:xlink="http://www.w3.org/1999/xlink" width="16" height="16" viewBox="0 0 16 16">
<path d="M4.531 8.106l-2.003-3.47c1.283-1.606 3.257-2.635 5.472-2.635 2.563 0 4.803 1.377 6.023 3.432h-5.712c-0.103-0.009-0.206-0.014-0.311-0.014-1.666 0-3.070 1.144-3.469 2.687zM10.506 6.444h4.012c0.311 0.792 0.482 1.654 0.482 2.557 0 3.839-3.091 6.956-6.92 6.999l2.863-4.958c0.403-0.579 0.64-1.283 0.64-2.040 0-1-0.412-1.906-1.076-2.557zM5.457 9.001c0-1.402 1.141-2.543 2.543-2.543s2.543 1.141 2.543 2.543c0 1.402-1.141 2.543-2.543 2.543s-2.543-1.141-2.543-2.543zM8.96 12.452l-2.004 3.471c-3.371-0.504-5.955-3.411-5.955-6.922 0-1.247 0.327-2.418 0.898-3.432l2.858 4.95c0.572 1.218 1.811 2.064 3.244 2.064 0.332 0 0.654-0.046 0.96-0.131z"></path>
</svg>
