<?xml version="1.0" encoding="utf-8"?>
<!-- Generated by IcoMoon.io -->
<!DOCTYPE svg PUBLIC "-//W3C//DTD SVG 1.1//EN" "http://www.w3.org/Graphics/SVG/1.1/DTD/svg11.dtd">
<svg version="1.1" xmlns="http://www.w3.org/2000/svg" xmlns:xlink="http://www.w3.org/1999/xlink" width="16" height="16" viewBox="0 0 16 16">
<path d="M14.388 13.413c-0-0-0-0-0-0l-3.948-3.948 3.948-3.948c0-0 0-0 0-0 0.043-0.043 0.073-0.092 0.093-0.145 0.054-0.145 0.023-0.314-0.093-0.43l-1.865-1.865c-0.116-0.116-0.285-0.147-0.43-0.093-0.053 0.020-0.103 0.050-0.145 0.093 0 0-0 0-0 0l-3.948 3.948-3.948-3.948c-0-0-0-0-0-0-0.043-0.042-0.092-0.073-0.145-0.093-0.145-0.054-0.314-0.023-0.43 0.093l-1.865 1.865c-0.116 0.116-0.147 0.285-0.093 0.43 0.020 0.053 0.050 0.103 0.093 0.145 0 0 0 0 0 0l3.948 3.948-3.948 3.948c-0 0-0 0-0 0-0.042 0.043-0.073 0.092-0.093 0.145-0.054 0.145-0.023 0.314 0.093 0.43l1.865 1.865c0.116 0.116 0.285 0.147 0.43 0.093 0.053-0.020 0.103-0.050 0.145-0.093 0-0 0-0 0-0l3.948-3.948 3.948 3.948c0 0 0 0 0 0 0.043 0.043 0.092 0.073 0.145 0.093 0.145 0.054 0.314 0.023 0.43-0.093l1.865-1.865c0.116-0.116 0.147-0.285 0.093-0.43-0.020-0.053-0.050-0.103-0.093-0.145z"></path>
</svg>
