<?xml version="1.0" encoding="utf-8"?>
<!-- Generated by IcoMoon.io -->
<!DOCTYPE svg PUBLIC "-//W3C//DTD SVG 1.1//EN" "http://www.w3.org/Graphics/SVG/1.1/DTD/svg11.dtd">
<svg version="1.1" xmlns="http://www.w3.org/2000/svg" xmlns:xlink="http://www.w3.org/1999/xlink" width="16" height="16" viewBox="0 0 16 16">
<path d="M8 16c-3.861 0-7-3.139-7-7s3.139-7 7-7c3.861 0 7 3.139 7 7s-3.139 7-7 7v0zM13.904 9.957c-0.205-0.066-1.851-0.555-3.724-0.254 0.782 2.149 1.099 3.899 1.162 4.263 1.34-0.908 2.297-2.343 2.562-4.009v0zM10.335 14.512c-0.090-0.525-0.435-2.352-1.274-4.534-0.014 0.005-0.027 0.008-0.038 0.014-3.374 1.176-4.586 3.514-4.692 3.732 1.014 0.79 2.289 1.263 3.67 1.263 0.829 0 1.619-0.17 2.335-0.476v0zM3.557 13.006c0.137-0.232 1.777-2.948 4.859-3.946 0.077-0.025 0.156-0.049 0.235-0.071-0.15-0.339-0.314-0.681-0.484-1.014-2.983 0.894-5.882 0.856-6.144 0.853-0.003 0.060-0.003 0.12-0.003 0.183 0 1.534 0.582 2.937 1.537 3.995v0zM2.148 7.783c0.268 0.003 2.732 0.014 5.529-0.727-0.99-1.761-2.059-3.243-2.218-3.459-1.673 0.79-2.926 2.332-3.311 4.186v0zM6.6 3.195c0.164 0.221 1.252 1.701 2.231 3.5 2.127-0.796 3.027-2.007 3.134-2.16-1.055-0.938-2.445-1.507-3.965-1.507-0.481 0.003-0.952 0.060-1.4 0.167v0zM12.629 5.229c-0.126 0.17-1.129 1.455-3.339 2.357 0.139 0.284 0.273 0.574 0.396 0.867 0.044 0.104 0.088 0.205 0.129 0.309 1.991-0.249 3.968 0.15 4.164 0.191-0.014-1.411-0.52-2.707-1.351-3.724v0z"></path>
</svg>
