<?xml version="1.0" encoding="utf-8"?>
<!-- Generated by IcoMoon.io -->
<!DOCTYPE svg PUBLIC "-//W3C//DTD SVG 1.1//EN" "http://www.w3.org/Graphics/SVG/1.1/DTD/svg11.dtd">
<svg version="1.1" xmlns="http://www.w3.org/2000/svg" xmlns:xlink="http://www.w3.org/1999/xlink" width="16" height="16" viewBox="0 0 16 16">
<path d="M1.178 8.183c0.412-3.253 2.632-6.204 6.611-6.245 2.401 0.047 4.377 1.135 5.553 3.209 0.591 1.083 0.775 2.22 0.813 3.476v1.475h-8.828c0.041 3.641 5.358 3.517 7.647 1.912v2.965c-1.341 0.805-4.383 1.525-6.737 0.599-2.006-0.753-3.435-2.852-3.426-4.872-0.066-2.618 1.302-4.352 3.426-5.339-0.451 0.558-0.794 1.173-0.973 2.239h4.984c0 0 0.291-2.978-2.822-2.978-2.934 0.102-5.050 1.808-6.248 3.558v0z"></path>
</svg>
