<?xml version="1.0" encoding="utf-8"?>
<!-- Generated by IcoMoon.io -->
<!DOCTYPE svg PUBLIC "-//W3C//DTD SVG 1.1//EN" "http://www.w3.org/Graphics/SVG/1.1/DTD/svg11.dtd">
<svg version="1.1" xmlns="http://www.w3.org/2000/svg" xmlns:xlink="http://www.w3.org/1999/xlink" width="16" height="16" viewBox="0 0 16 16">
<path d="M14.866 7.484l-0.159 1.023c0 0-0.228-1.894-0.507-2.603-0.428-1.085-0.619-1.077-0.62-1.075 0.287 0.729 0.235 1.121 0.235 1.121s-0.508-1.385-1.852-1.826c-1.489-0.488-2.294-0.355-2.387-0.329-0.014-0-0.028-0-0.041-0 0.011 0.001 0.022 0.002 0.033 0.003-0 0-0.001 0.001-0.001 0.001 0.006 0.007 1.645 0.287 1.936 0.686 0 0-0.696 0-1.389 0.2-0.031 0.009 2.549 0.322 3.076 2.901 0 0-0.283-0.59-0.633-0.69 0.23 0.7 0.171 2.028-0.048 2.688-0.028 0.085-0.057-0.367-0.489-0.562 0.138 0.991-0.008 2.562-0.695 2.994-0.054 0.034 0.431-1.551 0.097-0.938-1.919 2.943-4.188 1.358-5.208 0.661 0.523 0.114 1.515-0.018 1.954-0.344 0.001-0 0.001-0.001 0.002-0.001 0.477-0.326 0.76-0.564 1.013-0.508s0.423-0.198 0.226-0.424c-0.197-0.226-0.677-0.538-1.325-0.368-0.457 0.12-1.024 0.626-1.889 0.113-0.664-0.393-0.726-0.72-0.732-0.947 0.016-0.080 0.037-0.155 0.062-0.224 0.076-0.213 0.308-0.278 0.437-0.329 0.219 0.038 0.407 0.106 0.605 0.207 0.003-0.066 0.003-0.153-0-0.252 0.019-0.038 0.007-0.151-0.023-0.29-0.018-0.139-0.046-0.282-0.091-0.413 0-0 0-0 0-0s0.001-0.001 0.002-0.001 0.002-0.002 0.003-0.003c0-0 0-0 0.001-0.001 0.001-0.002 0.002-0.004 0.003-0.006 0.014-0.062 0.162-0.182 0.346-0.311 0.165-0.115 0.359-0.238 0.512-0.333 0.135-0.084 0.238-0.146 0.26-0.163 0.008-0.006 0.018-0.014 0.029-0.022 0.002-0.002 0.004-0.003 0.006-0.005s0.003-0.002 0.004-0.003c0.073-0.058 0.181-0.167 0.204-0.398 0-0.001 0-0.001 0-0.002 0.001-0.007 0.001-0.014 0.002-0.021 0-0.005 0.001-0.010 0.001-0.015 0-0.004 0-0.008 0.001-0.011 0-0.009 0.001-0.018 0.001-0.028 0-0.001 0-0.001 0-0.002 0-0.022-0-0.046-0.001-0.070-0.001-0.014-0.002-0.026-0.004-0.037-0-0.001-0-0.001-0-0.002s-0-0.002-0.001-0.003-0.001-0.004-0.002-0.006c-0-0-0-0-0-0.001-0.001-0.002-0.002-0.004-0.002-0.006-0-0-0-0-0-0-0.024-0.055-0.112-0.076-0.477-0.082-0-0-0.001-0-0.001-0v0c-0.149-0.003-0.343-0.003-0.599-0.002-0.447 0.002-0.694-0.437-0.773-0.607 0.108-0.598 0.421-1.024 0.934-1.313 0.010-0.005 0.008-0.010-0.004-0.013 0.1-0.061-1.214-0.002-1.818 0.767-0.536-0.133-1.004-0.124-1.407-0.030-0.077-0.002-0.174-0.012-0.288-0.036-0.268-0.243-0.652-0.691-0.672-1.227 0 0-0.001 0.001-0.003 0.003-0-0.005-0.001-0.010-0.001-0.015 0 0-0.817 0.628-0.694 2.339-0 0.027-0.001 0.054-0.002 0.079-0.221 0.3-0.331 0.552-0.339 0.607-0.196 0.399-0.395 0.999-0.556 1.91 0 0 0.113-0.359 0.34-0.765-0.167 0.511-0.298 1.307-0.221 2.5 0 0 0.020-0.264 0.092-0.646 0.056 0.74 0.303 1.653 0.926 2.727 1.196 2.062 3.035 3.103 5.068 3.263 0.361 0.030 0.727 0.030 1.095 0.002 0.034-0.002 0.068-0.005 0.102-0.008 0.416-0.029 0.836-0.092 1.254-0.193 5.718-1.383 5.097-8.287 5.097-8.287z"></path>
</svg>
