<?xml version="1.0" encoding="utf-8"?>
<!-- Generated by IcoMoon.io -->
<!DOCTYPE svg PUBLIC "-//W3C//DTD SVG 1.1//EN" "http://www.w3.org/Graphics/SVG/1.1/DTD/svg11.dtd">
<svg version="1.1" xmlns="http://www.w3.org/2000/svg" xmlns:xlink="http://www.w3.org/1999/xlink" width="16" height="16" viewBox="0 0 16 16">
<path d="M14.748 8.275l-6.123-6.123c-0.352-0.353-0.924-0.353-1.277 0l-1.423 1.423 1.071 1.071c0.172-0.082 0.364-0.128 0.567-0.128 0.726 0 1.315 0.589 1.315 1.315 0 0.203-0.046 0.395-0.128 0.567l1.753 1.753c0.172-0.082 0.364-0.128 0.567-0.128 0.726 0 1.315 0.589 1.315 1.315s-0.589 1.315-1.315 1.315-1.315-0.589-1.315-1.315c0-0.203 0.046-0.395 0.128-0.567l-1.753-1.753c-0.042 0.020-0.085 0.038-0.129 0.053v3.656c0.511 0.181 0.877 0.667 0.877 1.24 0 0.726-0.589 1.315-1.315 1.315s-1.315-0.589-1.315-1.315c0-0.572 0.366-1.059 0.877-1.24v-3.656c-0.511-0.181-0.877-0.667-0.877-1.24 0-0.203 0.046-0.395 0.128-0.567l-1.071-1.071-4.053 4.052c-0.353 0.353-0.353 0.925 0 1.278l6.124 6.123c0.353 0.353 0.924 0.353 1.277 0l6.095-6.095c0.353-0.353 0.353-0.925-0-1.278z"></path>
</svg>
