<?xml version="1.0" encoding="utf-8"?>
<!-- Generated by IcoMoon.io -->
<!DOCTYPE svg PUBLIC "-//W3C//DTD SVG 1.1//EN" "http://www.w3.org/Graphics/SVG/1.1/DTD/svg11.dtd">
<svg version="1.1" xmlns="http://www.w3.org/2000/svg" xmlns:xlink="http://www.w3.org/1999/xlink" width="16" height="16" viewBox="0 0 16 16">
<path d="M8 2.331c-3.854 0-6.979 3.124-6.979 6.979 0 3.083 2 5.699 4.773 6.622 0.349 0.065 0.477-0.151 0.477-0.336 0-0.166-0.007-0.716-0.010-1.299-1.942 0.422-2.351-0.823-2.351-0.823-0.317-0.807-0.775-1.021-0.775-1.021-0.633-0.433 0.048-0.424 0.048-0.424 0.701 0.049 1.070 0.719 1.070 0.719 0.623 1.067 1.633 0.758 2.031 0.58 0.063-0.451 0.243-0.759 0.443-0.933-1.55-0.176-3.18-0.775-3.18-3.449 0-0.762 0.273-1.385 0.719-1.873-0.072-0.176-0.312-0.886 0.067-1.847 0 0 0.586-0.187 1.92 0.715 0.557-0.155 1.154-0.232 1.747-0.235 0.593 0.003 1.19 0.080 1.748 0.235 1.332-0.903 1.917-0.715 1.917-0.715 0.38 0.961 0.141 1.671 0.069 1.847 0.447 0.489 0.718 1.111 0.718 1.873 0 2.681-1.633 3.271-3.187 3.443 0.25 0.217 0.473 0.641 0.473 1.292 0 0.934-0.008 1.685-0.008 1.915 0 0.186 0.126 0.403 0.479 0.335 2.771-0.924 4.769-3.539 4.769-6.621 0-3.854-3.125-6.979-6.979-6.979z"></path>
</svg>
