<?xml version="1.0" encoding="utf-8"?>
<!-- Generated by IcoMoon.io -->
<!DOCTYPE svg PUBLIC "-//W3C//DTD SVG 1.1//EN" "http://www.w3.org/Graphics/SVG/1.1/DTD/svg11.dtd">
<svg version="1.1" xmlns="http://www.w3.org/2000/svg" xmlns:xlink="http://www.w3.org/1999/xlink" width="16" height="16" viewBox="0 0 16 16">
<path d="M7.125 6.156c0-0.361 0.295-0.656 0.656-0.656h0.438c0.361 0 0.656 0.295 0.656 0.656v0.438c0 0.361-0.295 0.656-0.656 0.656h-0.438c-0.361 0-0.656-0.295-0.656-0.656v-0.438z"></path>
<path d="M9.75 12.5h-3.5v-0.875h0.875v-2.625h-0.875v-0.875h2.625v3.5h0.875z"></path>
<path d="M8 2c-3.866 0-7 3.134-7 7s3.134 7 7 7 7-3.134 7-7-3.134-7-7-7zM8 14.688c-3.141 0-5.688-2.546-5.688-5.688s2.546-5.688 5.688-5.688 5.688 2.546 5.688 5.688-2.546 5.688-5.688 5.688z"></path>
</svg>
