<?xml version="1.0" encoding="utf-8"?>
<!-- Generated by IcoMoon.io -->
<!DOCTYPE svg PUBLIC "-//W3C//DTD SVG 1.1//EN" "http://www.w3.org/Graphics/SVG/1.1/DTD/svg11.dtd">
<svg version="1.1" xmlns="http://www.w3.org/2000/svg" xmlns:xlink="http://www.w3.org/1999/xlink" width="16" height="16" viewBox="0 0 16 16">
<path d="M13.688 2h-11.375c-0.722 0-1.313 0.591-1.313 1.313v11.375c0 0.722 0.591 1.313 1.313 1.313h11.375c0.722 0 1.313-0.591 1.313-1.313v-11.375c0-0.722-0.591-1.313-1.313-1.313zM10.625 4.188c0-0.241 0.197-0.438 0.438-0.438h1.75c0.241 0 0.438 0.197 0.438 0.438v1.75c0 0.241-0.197 0.438-0.438 0.438h-1.75c-0.241 0-0.438-0.197-0.438-0.438v-1.75zM8 6.375c1.449 0 2.625 1.176 2.625 2.625s-1.176 2.625-2.625 2.625c-1.449 0-2.625-1.176-2.625-2.625s1.176-2.625 2.625-2.625zM13.25 13.813v0c0 0.241-0.197 0.438-0.438 0.438h-9.625c-0.241 0-0.438-0.197-0.438-0.438v0-5.688h0.962c-0.057 0.282-0.087 0.574-0.087 0.875 0 2.417 1.958 4.375 4.375 4.375s4.375-1.958 4.375-4.375c0-0.301-0.030-0.593-0.088-0.875h0.963v5.688z"></path>
</svg>
