<?xml version="1.0" encoding="utf-8"?>
<!-- Generated by IcoMoon.io -->
<!DOCTYPE svg PUBLIC "-//W3C//DTD SVG 1.1//EN" "http://www.w3.org/Graphics/SVG/1.1/DTD/svg11.dtd">
<svg version="1.1" xmlns="http://www.w3.org/2000/svg" xmlns:xlink="http://www.w3.org/1999/xlink" width="16" height="16" viewBox="0 0 16 16">
<path d="M7.022 10.874c-0.181 0-0.363-0.069-0.501-0.207-1.296-1.296-1.296-3.405 0-4.702l2.616-2.616c0.628-0.628 1.463-0.974 2.351-0.974s1.723 0.346 2.351 0.974c1.296 1.296 1.296 3.405 0 4.702l-1.196 1.196c-0.277 0.277-0.725 0.277-1.002 0s-0.277-0.725 0-1.002l1.196-1.196c0.744-0.744 0.744-1.954 0-2.698-0.36-0.36-0.839-0.559-1.349-0.559s-0.989 0.198-1.349 0.559l-2.616 2.616c-0.744 0.744-0.744 1.954 0 2.698 0.277 0.277 0.277 0.725 0 1.002-0.138 0.138-0.32 0.207-0.501 0.207z"></path>
<path d="M4.512 16c-0.888 0-1.723-0.346-2.351-0.974-1.296-1.296-1.296-3.405 0-4.702l1.196-1.196c0.277-0.277 0.725-0.277 1.002 0s0.277 0.725 0 1.002l-1.196 1.196c-0.744 0.744-0.744 1.954 0 2.698 0.36 0.36 0.839 0.559 1.349 0.559s0.989-0.198 1.349-0.559l2.616-2.616c0.744-0.744 0.744-1.954 0-2.698-0.277-0.277-0.277-0.725 0-1.002s0.725-0.277 1.002 0c1.296 1.296 1.296 3.405 0 4.702l-2.616 2.616c-0.628 0.628-1.463 0.974-2.351 0.974z"></path>
</svg>
