<?xml version="1.0" encoding="utf-8"?>
<!-- Generated by IcoMoon.io -->
<!DOCTYPE svg PUBLIC "-//W3C//DTD SVG 1.1//EN" "http://www.w3.org/Graphics/SVG/1.1/DTD/svg11.dtd">
<svg version="1.1" xmlns="http://www.w3.org/2000/svg" xmlns:xlink="http://www.w3.org/1999/xlink" width="16" height="16" viewBox="0 0 16 16">
<path d="M15 9v0 0c0 2.073-0.902 3.938-2.335 5.217-1.796 0.875-3.47 0.262-4.022-0.12 1.764-0.386 3.095-2.518 3.095-5.097s-1.332-4.711-3.095-5.1c0.555-0.383 2.229-0.995 4.022-0.12 1.433 1.282 2.335 3.147 2.335 5.22v0 0z"></path>
<path d="M5.695 5.054c-0.774 0.913-1.274 2.264-1.307 3.782 0 0.003 0 0.325 0 0.331 0.033 1.515 0.536 2.866 1.31 3.779 1.004 1.304 2.496 2.13 4.164 2.13 1.025 0 1.985-0.312 2.805-0.856-1.241 1.107-2.877 1.78-4.668 1.78-0.112 0-0.224-0.003-0.334-0.008-3.711-0.175-6.666-3.238-6.666-6.992 0-3.866 3.134-7 7-7 0.008 0 0.016 0 0.027 0 1.783 0.005 3.407 0.678 4.64 1.783-0.82-0.544-1.78-0.859-2.805-0.859-1.668 0-3.161 0.826-4.167 2.13z"></path>
</svg>
