<?xml version="1.0" encoding="utf-8"?>
<!-- Generated by IcoMoon.io -->
<!DOCTYPE svg PUBLIC "-//W3C//DTD SVG 1.1//EN" "http://www.w3.org/Graphics/SVG/1.1/DTD/svg11.dtd">
<svg version="1.1" xmlns="http://www.w3.org/2000/svg" xmlns:xlink="http://www.w3.org/1999/xlink" width="16" height="16" viewBox="0 0 16 16">
<path d="M8 2c-3.861 0-7 3.139-7 7s3.139 7 7 7 7-3.139 7-7-3.139-7-7-7zM8 15.065c-0.626 0-1.228-0.096-1.796-0.271 0.246-0.402 0.618-1.064 0.755-1.589 0.074-0.284 0.377-1.441 0.377-1.441 0.197 0.377 0.777 0.697 1.389 0.697 1.829 0 3.147-1.682 3.147-3.773 0-2.004-1.635-3.503-3.738-3.503-2.617 0-4.006 1.758-4.006 3.67 0 0.889 0.473 1.996 1.23 2.349 0.115 0.055 0.175 0.030 0.202-0.082 0.019-0.085 0.123-0.495 0.17-0.689 0.014-0.060 0.008-0.115-0.041-0.175-0.252-0.304-0.451-0.864-0.451-1.384 0-1.337 1.012-2.633 2.737-2.633 1.49 0 2.532 1.014 2.532 2.466 0 1.641-0.829 2.778-1.906 2.778-0.596 0-1.042-0.492-0.897-1.096 0.172-0.722 0.503-1.498 0.503-2.018 0-0.465-0.249-0.853-0.768-0.853-0.61 0-1.096 0.629-1.096 1.474 0 0.536 0.18 0.9 0.18 0.9s-0.602 2.54-0.711 3.013c-0.123 0.525-0.074 1.261-0.022 1.739-2.256-0.88-3.855-3.073-3.855-5.644 0-3.35 2.715-6.065 6.065-6.065s6.065 2.715 6.065 6.065c0 3.35-2.715 6.065-6.065 6.065z"></path>
</svg>
