<?xml version="1.0" encoding="utf-8"?>
<!-- Generated by IcoMoon.io -->
<!DOCTYPE svg PUBLIC "-//W3C//DTD SVG 1.1//EN" "http://www.w3.org/Graphics/SVG/1.1/DTD/svg11.dtd">
<svg version="1.1" xmlns="http://www.w3.org/2000/svg" xmlns:xlink="http://www.w3.org/1999/xlink" width="16" height="16" viewBox="0 0 16 16">
<path d="M14.563 7.25h-4.813v-4.813c0-0.242-0.196-0.438-0.438-0.438h-2.625c-0.242 0-0.438 0.196-0.438 0.438v4.813h-4.813c-0.242 0-0.438 0.196-0.438 0.438v2.625c0 0.242 0.196 0.438 0.438 0.438h4.813v4.813c0 0.242 0.196 0.438 0.438 0.438h2.625c0.242 0 0.438-0.196 0.438-0.438v-4.813h4.813c0.242 0 0.438-0.196 0.438-0.438v-2.625c0-0.242-0.196-0.438-0.438-0.438z"></path>
</svg>
