<?xml version="1.0" encoding="utf-8"?>
<!-- Generated by IcoMoon.io -->
<!DOCTYPE svg PUBLIC "-//W3C//DTD SVG 1.1//EN" "http://www.w3.org/Graphics/SVG/1.1/DTD/svg11.dtd">
<svg version="1.1" xmlns="http://www.w3.org/2000/svg" xmlns:xlink="http://www.w3.org/1999/xlink" width="16" height="16" viewBox="0 0 16 16">
<path d="M14.33 2.239h-5.239c-0.36 0-0.863 0.208-1.118 0.463l-6.495 6.495c-0.255 0.255-0.255 0.671 0 0.926l5.622 5.622c0.255 0.255 0.671 0.255 0.926 0l6.495-6.495c0.255-0.255 0.463-0.758 0.463-1.118v-5.239c0-0.36-0.295-0.655-0.655-0.655zM11.056 7.477c-0.723 0-1.31-0.586-1.31-1.31s0.586-1.31 1.31-1.31 1.31 0.586 1.31 1.31-0.586 1.31-1.31 1.31z"></path>
</svg>
