<?xml version="1.0" encoding="utf-8"?>
<!-- Generated by IcoMoon.io -->
<!DOCTYPE svg PUBLIC "-//W3C//DTD SVG 1.1//EN" "http://www.w3.org/Graphics/SVG/1.1/DTD/svg11.dtd">
<svg version="1.1" xmlns="http://www.w3.org/2000/svg" xmlns:xlink="http://www.w3.org/1999/xlink" width="16" height="16" viewBox="0 0 16 16">
<path d="M7.125 11.625h1.75v1.75h-1.75zM10.625 5.5c0.483 0 0.875 0.392 0.875 0.875v2.625l-2.625 1.75h-1.75v-0.875l2.625-1.75v-0.875h-4.375v-1.75h5.25zM8 3.313c-1.519 0-2.947 0.592-4.022 1.666s-1.666 2.502-1.666 4.022c0 1.519 0.592 2.947 1.666 4.022s2.502 1.666 4.022 1.666c1.519 0 2.947-0.592 4.022-1.666s1.666-2.502 1.666-4.022c0-1.519-0.592-2.947-1.666-4.022s-2.502-1.666-4.022-1.666zM8 2v0c3.866 0 7 3.134 7 7s-3.134 7-7 7c-3.866 0-7-3.134-7-7s3.134-7 7-7z"></path>
</svg>
