<?xml version="1.0" encoding="utf-8"?>
<!-- Generated by IcoMoon.io -->
<!DOCTYPE svg PUBLIC "-//W3C//DTD SVG 1.1//EN" "http://www.w3.org/Graphics/SVG/1.1/DTD/svg11.dtd">
<svg version="1.1" xmlns="http://www.w3.org/2000/svg" xmlns:xlink="http://www.w3.org/1999/xlink" width="16" height="16" viewBox="0 0 16 16">
<path d="M3.23 12.533c-0.955 0-1.73 0.779-1.73 1.728 0 0.954 0.776 1.724 1.73 1.724 0.958 0 1.733-0.77 1.733-1.724-0-0.949-0.775-1.728-1.733-1.728zM1.502 7.417v2.492c1.622 0 3.148 0.634 4.297 1.784 1.147 1.147 1.781 2.679 1.781 4.308h2.503c-0-4.733-3.85-8.583-8.58-8.583zM1.505 3v2.493c5.786 0 10.496 4.714 10.496 10.507h2.499c0-7.166-5.83-13-12.995-13z"></path>
</svg>
