<?xml version="1.0" encoding="utf-8"?>
<!-- Generated by IcoMoon.io -->
<!DOCTYPE svg PUBLIC "-//W3C//DTD SVG 1.1//EN" "http://www.w3.org/Graphics/SVG/1.1/DTD/svg11.dtd">
<svg version="1.1" xmlns="http://www.w3.org/2000/svg" xmlns:xlink="http://www.w3.org/1999/xlink" width="16" height="16" viewBox="0 0 16 16">
<path d="M8 2c-3.866 0-7 3.134-7 7s3.134 7 7 7 7-3.134 7-7-3.134-7-7-7zM14.103 8.464l-0.014-0.145c0.003 0.049 0.008 0.096 0.014 0.145zM13.146 5.675l-0.098-0.148c0.033 0.049 0.066 0.098 0.098 0.148zM12.766 5.153l-0.060-0.074c0.022 0.025 0.041 0.049 0.060 0.074zM11.918 4.291l-0.074-0.060c0.027 0.022 0.049 0.041 0.074 0.060zM11.473 3.952l-0.148-0.098c0.049 0.033 0.098 0.066 0.148 0.098zM8.681 2.913l-0.148-0.014c0.049 0.003 0.098 0.008 0.148 0.014zM7.464 2.897l-0.148 0.014c0.049-0.003 0.098-0.008 0.148-0.014zM4.675 3.854l-0.148 0.098c0.049-0.033 0.098-0.066 0.148-0.098zM4.153 4.234l-0.071 0.057c0.025-0.019 0.046-0.038 0.071-0.057zM3.291 5.082l-0.060 0.074c0.022-0.025 0.041-0.049 0.060-0.074zM2.952 5.527l-0.098 0.148c0.033-0.049 0.066-0.098 0.098-0.148zM1.913 8.319l-0.014 0.148c0.003-0.049 0.008-0.098 0.014-0.148zM1.897 9.536l0.014 0.148c-0.003-0.049-0.008-0.098-0.014-0.148zM2.854 12.322l0.098 0.148c-0.033-0.046-0.066-0.096-0.098-0.148zM2.969 12.495l1.091-0.73-0.12-0.183-1.091 0.73c-0.495-0.768-0.82-1.652-0.93-2.603l0.654-0.066-0.022-0.219-0.654 0.066c-0.011-0.126-0.016-0.254-0.019-0.383h1.313v-0.219h-1.313c0.003-0.129 0.008-0.254 0.019-0.383l0.654 0.063 0.022-0.219-0.654-0.063c0.109-0.952 0.437-1.835 0.932-2.603l1.091 0.73 0.12-0.183-1.094-0.725c0.074-0.104 0.148-0.208 0.227-0.306l0.506 0.416 0.139-0.17-0.506-0.416c0.082-0.098 0.17-0.191 0.257-0.284l0.927 0.927 0.156-0.156-0.927-0.927c0.093-0.088 0.186-0.175 0.282-0.257l0.416 0.509 0.17-0.139-0.416-0.506c0.101-0.079 0.202-0.156 0.306-0.23l0.73 1.091 0.183-0.12-0.73-1.091c0.768-0.495 1.652-0.82 2.603-0.93l0.066 0.654 0.219-0.022-0.066-0.654c0.126-0.011 0.254-0.016 0.383-0.019v1.313h0.219v-1.313c0.129 0.003 0.254 0.008 0.383 0.019l-0.063 0.654 0.219 0.022 0.063-0.654c0.952 0.109 1.835 0.438 2.603 0.932l-0.73 1.091 0.183 0.12 0.73-1.091c0.104 0.074 0.208 0.148 0.306 0.227l-0.416 0.506 0.17 0.139 0.416-0.506c0.098 0.082 0.191 0.17 0.284 0.257l-0.35 0.342-4.785 3.191-3.191 4.785-0.342 0.342c-0.087-0.093-0.175-0.186-0.257-0.282l0.506-0.416-0.139-0.17-0.506 0.416c-0.079-0.098-0.153-0.202-0.227-0.306zM3.291 12.918c-0.019-0.025-0.038-0.046-0.057-0.071l0.057 0.071zM4.082 13.709l0.071 0.057c-0.025-0.019-0.046-0.038-0.071-0.057zM4.527 14.045l0.148 0.098c-0.049-0.030-0.098-0.063-0.148-0.098zM7.319 15.087l0.148 0.014c-0.049-0.003-0.098-0.008-0.148-0.014zM8.536 15.103l0.145-0.014c-0.049 0.003-0.096 0.008-0.145 0.014zM11.325 14.146l0.148-0.098c-0.049 0.033-0.098 0.066-0.148 0.098zM11.847 13.766l0.074-0.060c-0.025 0.022-0.049 0.041-0.074 0.060zM12.326 13.337l0.011-0.011c-0.003 0.003-0.008 0.008-0.011 0.011zM12.709 12.918l0.060-0.074c-0.022 0.025-0.041 0.049-0.060 0.074zM12.804 12.801l-0.506-0.416-0.139 0.17 0.506 0.416c-0.082 0.098-0.17 0.191-0.257 0.284l-0.927-0.927-0.156 0.156 0.927 0.927c-0.093 0.088-0.186 0.175-0.282 0.257l-0.416-0.509-0.17 0.139 0.416 0.506c-0.101 0.079-0.202 0.156-0.306 0.23l-0.73-1.091-0.183 0.12 0.73 1.091c-0.768 0.495-1.652 0.82-2.603 0.93l-0.066-0.654-0.219 0.022 0.066 0.654c-0.126 0.011-0.254 0.016-0.383 0.019v-1.313h-0.219v1.313c-0.129-0.003-0.254-0.008-0.383-0.019l0.063-0.654-0.219-0.022-0.063 0.654c-0.952-0.109-1.835-0.438-2.603-0.932l0.73-1.091-0.183-0.12-0.725 1.091c-0.104-0.074-0.208-0.148-0.306-0.227l0.416-0.506-0.17-0.139-0.416 0.506c-0.098-0.082-0.191-0.17-0.284-0.257l0.345-0.342 4.785-3.191 3.191-4.785 0.342-0.342c0.088 0.093 0.175 0.186 0.257 0.282l-0.506 0.416 0.139 0.17 0.506-0.416c0.079 0.101 0.156 0.202 0.23 0.306l-1.091 0.73 0.12 0.183 1.091-0.73c0.495 0.768 0.82 1.652 0.93 2.603l-0.654 0.066 0.022 0.219 0.654-0.066c0.011 0.126 0.016 0.254 0.019 0.383h-1.313v0.219h1.313c-0.003 0.129-0.008 0.254-0.019 0.383l-0.654-0.063-0.022 0.219 0.654 0.063c-0.109 0.952-0.438 1.835-0.932 2.603l-1.091-0.73-0.12 0.183 1.091 0.73c-0.071 0.098-0.148 0.2-0.227 0.301zM14.103 9.533c-0.005 0.049-0.008 0.098-0.014 0.148l0.014-0.148zM13.146 12.325c-0.033 0.049-0.066 0.098-0.098 0.148l0.098-0.148z"></path>
<path d="M6.914 2.972l0.256 1.287-0.215 0.043-0.256-1.287 0.215-0.043z"></path>
<path d="M9.089 15.029l-0.256-1.287 0.215-0.043 0.256 1.287-0.215 0.043z"></path>
<path d="M6.327 3.106l0.191 0.628-0.209 0.064-0.191-0.628 0.209-0.064z"></path>
<path d="M9.674 14.891l-0.191-0.628 0.209-0.064 0.191 0.628-0.209 0.064z"></path>
<path d="M5.758 3.3l0.502 1.213-0.202 0.084-0.502-1.213 0.202-0.084z"></path>
<path d="M10.244 14.701l-0.502-1.213 0.202-0.084 0.502 1.213-0.202 0.084z"></path>
<path d="M5.014 3.65l0.193-0.103 0.309 0.579-0.193 0.103-0.309-0.579z"></path>
<path d="M10.982 14.35l-0.193 0.103-0.309-0.579 0.193-0.103 0.309 0.579z"></path>
<path d="M2.649 6.017l0.579 0.309-0.103 0.193-0.579-0.309 0.103-0.193z"></path>
<path d="M13.349 11.983l-0.579-0.309 0.103-0.193 0.579 0.309-0.103 0.193z"></path>
<path d="M3.513 7.259l-1.213-0.502 0.084-0.202 1.213 0.502-0.084 0.202z"></path>
<path d="M12.489 10.74l1.213 0.502-0.084 0.202-1.213-0.502 0.084-0.202z"></path>
<path d="M2.17 7.119l0.628 0.19-0.063 0.209-0.628-0.19 0.063-0.209z"></path>
<path d="M13.828 10.882l-0.628-0.19 0.063-0.209 0.628 0.19-0.063 0.209z"></path>
<path d="M2.013 7.698l1.287 0.256-0.043 0.215-1.287-0.256 0.043-0.215z"></path>
<path d="M13.985 10.302l-1.287-0.256 0.043-0.215 1.287 0.256-0.043 0.215z"></path>
<path d="M1.97 10.088l1.287-0.256 0.043 0.215-1.287 0.256-0.043-0.215z"></path>
<path d="M14.027 7.912l-1.287 0.256-0.043-0.215 1.287-0.256 0.043 0.215z"></path>
<path d="M2.107 10.675l0.628-0.191 0.064 0.209-0.628 0.191-0.064-0.209z"></path>
<path d="M13.892 7.328l-0.628 0.191-0.064-0.209 0.628-0.191 0.064 0.209z"></path>
<path d="M2.383 11.446l-0.084-0.202 1.213-0.502 0.084 0.202-1.213 0.502z"></path>
<path d="M13.616 6.556l0.084 0.202-1.213 0.502-0.084-0.202 1.213-0.502z"></path>
<path d="M2.652 11.984l-0.103-0.193 0.579-0.309 0.103 0.193-0.579 0.309z"></path>
<path d="M13.352 6.017l0.103 0.193-0.579 0.309-0.103-0.193 0.579-0.309z"></path>
<path d="M5.209 14.453l-0.193-0.103 0.309-0.579 0.193 0.103-0.309 0.579z"></path>
<path d="M10.79 3.546l0.193 0.103-0.309 0.579-0.193-0.103 0.309-0.579z"></path>
<path d="M5.556 14.616l0.502-1.213 0.202 0.084-0.502 1.213-0.202-0.084z"></path>
<path d="M10.446 3.382l-0.502 1.213-0.202-0.084 0.502-1.213 0.202 0.084z"></path>
<path d="M6.327 14.893l-0.209-0.064 0.191-0.628 0.209 0.064-0.191 0.628z"></path>
<path d="M9.673 3.106l0.209 0.063-0.19 0.628-0.209-0.063 0.19-0.628z"></path>
<path d="M6.913 15.027l-0.215-0.043 0.256-1.287 0.215 0.043-0.256 1.287z"></path>
<path d="M9.087 2.97l0.215 0.043-0.256 1.287-0.215-0.043 0.256-1.287z"></path>
</svg>
