<?xml version="1.0" encoding="utf-8"?>
<!-- Generated by IcoMoon.io -->
<!DOCTYPE svg PUBLIC "-//W3C//DTD SVG 1.1//EN" "http://www.w3.org/Graphics/SVG/1.1/DTD/svg11.dtd">
<svg version="1.1" xmlns="http://www.w3.org/2000/svg" xmlns:xlink="http://www.w3.org/1999/xlink" width="16" height="16" viewBox="0 0 16 16">
<path d="M14.576 13.762l-3.321-2.825c-0.343-0.309-0.71-0.451-1.007-0.437 0.784-0.918 1.258-2.11 1.258-3.412 0-2.904-2.354-5.258-5.258-5.258s-5.258 2.354-5.258 5.258 2.354 5.258 5.258 5.258c1.302 0 2.493-0.474 3.412-1.258-0.014 0.297 0.128 0.664 0.437 1.007l2.825 3.321c0.484 0.537 1.274 0.583 1.756 0.101s0.437-1.272-0.101-1.756zM6.247 10.594c-1.936 0-3.505-1.569-3.505-3.505s1.569-3.505 3.505-3.505 3.505 1.569 3.505 3.505-1.569 3.505-3.505 3.505z"></path>
</svg>
