<?xml version="1.0" encoding="utf-8"?>
<!-- Generated by IcoMoon.io -->
<!DOCTYPE svg PUBLIC "-//W3C//DTD SVG 1.1//EN" "http://www.w3.org/Graphics/SVG/1.1/DTD/svg11.dtd">
<svg version="1.1" xmlns="http://www.w3.org/2000/svg" xmlns:xlink="http://www.w3.org/1999/xlink" width="16" height="16" viewBox="0 0 16 16">
<path d="M6.904 3.499c-0.020-0.013-0.043-0.023-0.063-0.033-0.023 0.005-0.043 0.008-0.066 0.013l0.129 0.020z"></path>
<path d="M1.97 8.367c-0.005 0.023-0.008 0.046-0.010 0.066 0.013 0.020 0.020 0.041 0.033 0.061l-0.023-0.127z"></path>
<path d="M14.024 10.671c0.005-0.023 0.008-0.046 0.013-0.069-0.013-0.020-0.020-0.041-0.033-0.061l0.020 0.129z"></path>
<path d="M9.015 15.498c0.020 0.013 0.043 0.023 0.063 0.033 0.023-0.005 0.046-0.008 0.069-0.010l-0.132-0.023z"></path>
<path d="M14.037 10.602c-0.005 0.023-0.008 0.046-0.013 0.069l-0.023-0.132c0.013 0.023 0.023 0.043 0.036 0.063 0.066-0.365 0.102-0.738 0.102-1.111 0-0.827-0.162-1.632-0.482-2.388-0.31-0.731-0.751-1.388-1.315-1.951s-1.221-1.005-1.949-1.315c-0.756-0.32-1.561-0.482-2.388-0.482-0.391 0-0.782 0.036-1.162 0.109 0 0-0.003 0-0.003 0 0.020 0.010 0.043 0.020 0.063 0.033l-0.129-0.020c0.023-0.005 0.043-0.008 0.066-0.013-0.523-0.277-1.109-0.426-1.703-0.426-0.969 0-1.883 0.378-2.568 1.063s-1.063 1.599-1.063 2.568c0 0.617 0.16 1.226 0.457 1.761 0.005-0.023 0.008-0.046 0.010-0.066l0.023 0.129c-0.013-0.020-0.023-0.041-0.033-0.061-0.061 0.348-0.091 0.703-0.091 1.058 0 0.827 0.162 1.632 0.482 2.388 0.31 0.731 0.751 1.386 1.315 1.949s1.221 1.005 1.951 1.315c0.756 0.32 1.561 0.482 2.388 0.482 0.36 0 0.721-0.033 1.073-0.096-0.020-0.013-0.041-0.023-0.063-0.033l0.132 0.023c-0.023 0.005-0.046 0.008-0.069 0.010 0.543 0.307 1.16 0.472 1.787 0.472 0.969 0 1.883-0.378 2.568-1.063s1.063-1.599 1.063-2.568c-0.003-0.617-0.162-1.226-0.462-1.766zM8.028 13.249c-2.18 0-3.154-1.071-3.154-1.875 0-0.411 0.305-0.7 0.723-0.7 0.934 0 0.69 1.34 2.431 1.34 0.891 0 1.383-0.485 1.383-0.98 0-0.297-0.147-0.627-0.733-0.771l-1.939-0.485c-1.561-0.391-1.845-1.236-1.845-2.030 0-1.647 1.551-2.266 3.007-2.266 1.342 0 2.923 0.741 2.923 1.731 0 0.424-0.368 0.67-0.787 0.67-0.797 0-0.65-1.101-2.253-1.101-0.797 0-1.236 0.36-1.236 0.875s0.629 0.68 1.175 0.804l1.436 0.32c1.571 0.35 1.969 1.269 1.969 2.132 0 1.337-1.028 2.337-3.101 2.337z"></path>
</svg>
