<?xml version="1.0" encoding="utf-8"?>
<!-- Generated by IcoMoon.io -->
<!DOCTYPE svg PUBLIC "-//W3C//DTD SVG 1.1//EN" "http://www.w3.org/Graphics/SVG/1.1/DTD/svg11.dtd">
<svg version="1.1" xmlns="http://www.w3.org/2000/svg" xmlns:xlink="http://www.w3.org/1999/xlink" width="16" height="16" viewBox="0 0 16 16">
<path d="M7.533 2c-3.866 0-7 3.134-7 7s3.134 7 7 7c3.866 0 7-3.134 7-7s-3.134-7-7-7zM11.494 11.333c0.125-0.59 0.204-1.216 0.23-1.867h1.859c-0.049 0.645-0.199 1.27-0.447 1.867h-1.641zM3.573 6.667c-0.125 0.59-0.204 1.216-0.23 1.867h-1.859c0.049-0.644 0.199-1.27 0.447-1.867h1.641zM10.538 6.667c0.14 0.597 0.225 1.223 0.252 1.867h-2.79v-1.867h2.538zM8 5.733v-2.732c0.213 0.062 0.424 0.166 0.63 0.312 0.388 0.273 0.759 0.694 1.072 1.218 0.217 0.362 0.405 0.764 0.561 1.203h-2.264zM5.364 4.53c0.314-0.523 0.685-0.944 1.072-1.218 0.207-0.146 0.418-0.25 0.63-0.312v2.732h-2.264c0.157-0.438 0.344-0.841 0.561-1.203zM7.067 6.667v1.867h-2.79c0.027-0.644 0.112-1.269 0.252-1.867h2.538zM1.932 11.333c-0.249-0.596-0.399-1.222-0.447-1.867h1.859c0.026 0.651 0.105 1.277 0.23 1.867h-1.641zM4.277 9.467h2.79v1.867h-2.538c-0.14-0.597-0.225-1.223-0.252-1.867zM7.067 12.267v2.732c-0.213-0.062-0.424-0.166-0.63-0.312-0.388-0.273-0.759-0.694-1.072-1.217-0.217-0.362-0.405-0.764-0.561-1.203h2.264zM9.703 13.47c-0.314 0.523-0.685 0.944-1.072 1.217-0.207 0.146-0.418 0.25-0.63 0.312v-2.732h2.264c-0.157 0.438-0.344 0.841-0.561 1.203zM8 11.333v-1.867h2.79c-0.027 0.644-0.112 1.269-0.252 1.867h-2.538zM11.724 8.533c-0.026-0.651-0.105-1.277-0.23-1.867h1.641c0.249 0.596 0.399 1.222 0.447 1.867h-1.859zM12.647 5.733h-1.399c-0.272-0.857-0.647-1.608-1.098-2.208 0.62 0.297 1.182 0.694 1.673 1.185 0.313 0.313 0.589 0.655 0.824 1.023zM3.244 4.71c0.491-0.491 1.053-0.889 1.673-1.185-0.451 0.6-0.827 1.351-1.098 2.208h-1.399c0.235-0.368 0.511-0.71 0.824-1.023zM2.42 12.267h1.399c0.272 0.857 0.647 1.608 1.098 2.208-0.62-0.297-1.182-0.694-1.673-1.185-0.313-0.313-0.589-0.655-0.824-1.023zM11.823 13.29c-0.491 0.491-1.053 0.889-1.673 1.185 0.451-0.6 0.827-1.351 1.098-2.208h1.399c-0.235 0.368-0.511 0.71-0.824 1.023z"></path>
</svg>
