<?xml version="1.0" encoding="utf-8"?>
<!-- Generated by IcoMoon.io -->
<!DOCTYPE svg PUBLIC "-//W3C//DTD SVG 1.1//EN" "http://www.w3.org/Graphics/SVG/1.1/DTD/svg11.dtd">
<svg version="1.1" xmlns="http://www.w3.org/2000/svg" xmlns:xlink="http://www.w3.org/1999/xlink" width="16" height="16" viewBox="0 0 16 16">
<path d="M8.813 8.688l-0 2.973c0 0.754-0.010 1.189 0.070 1.403 0.079 0.213 0.278 0.434 0.495 0.561 0.288 0.173 0.616 0.259 0.987 0.259 0.658 0 1.047-0.087 1.698-0.515v1.954c-0.555 0.261-1.039 0.414-1.489 0.52-0.451 0.105-0.938 0.158-1.461 0.158-0.594 0-0.945-0.075-1.402-0.224-0.457-0.151-0.846-0.366-1.168-0.642-0.323-0.278-0.546-0.574-0.671-0.887s-0.187-0.767-0.187-1.361v-4.559h-1.745v-1.841c0.51-0.166 1.081-0.404 1.444-0.713 0.365-0.31 0.657-0.682 0.877-1.116 0.221-0.434 0.373-0.987 0.455-1.657h2.096l-0 3.25h3.25v2.438h-3.25z"></path>
</svg>
