<?xml version="1.0" encoding="utf-8"?>
<!-- Generated by IcoMoon.io -->
<!DOCTYPE svg PUBLIC "-//W3C//DTD SVG 1.1//EN" "http://www.w3.org/Graphics/SVG/1.1/DTD/svg11.dtd">
<svg version="1.1" xmlns="http://www.w3.org/2000/svg" xmlns:xlink="http://www.w3.org/1999/xlink" width="16" height="16" viewBox="0 0 16 16">
<path d="M8 3.268l5.867 11.693h-11.733l5.867-11.693zM8 2c-0.302 0-0.603 0.203-0.832 0.61l-5.976 11.91c-0.458 0.814-0.068 1.48 0.865 1.48h11.885c0.934 0 1.323-0.666 0.865-1.48h0l-5.976-11.91c-0.229-0.407-0.531-0.61-0.832-0.61v0z"></path>
<path d="M8.875 13.375c0 0.483-0.392 0.875-0.875 0.875s-0.875-0.392-0.875-0.875c0-0.483 0.392-0.875 0.875-0.875s0.875 0.392 0.875 0.875z"></path>
<path d="M8 11.625c-0.483 0-0.875-0.392-0.875-0.875v-2.625c0-0.483 0.392-0.875 0.875-0.875s0.875 0.392 0.875 0.875v2.625c0 0.483-0.392 0.875-0.875 0.875z"></path>
</svg>
