<svg style="position: absolute; width: 0; height: 0;" width="0" height="0" version="1.1" xmlns="http://www.w3.org/2000/svg" xmlns:xlink="http://www.w3.org/1999/xlink">
<defs>
<symbol id="icon-home" viewBox="0 0 16 16">
<title>home</title>
<path class="path1" d="M16 10.226l-8-6.21-8 6.21v-2.532l8-6.21 8 6.21zM14 10v6h-4v-4h-4v4h-4v-6l6-4.5z"></path>
</symbol>
<symbol id="icon-pencil" viewBox="0 0 16 16">
<title>pencil</title>
<path class="path1" d="M12.813 2c1.208 0 2.188 0.979 2.188 2.188 0 0.492-0.163 0.947-0.438 1.313l-0.875 0.875-3.063-3.063 0.875-0.875c0.366-0.275 0.82-0.438 1.313-0.438zM1.875 12.063l-0.875 3.938 3.938-0.875 8.094-8.094-3.063-3.063-8.094 8.094zM10.783 6.971l-6.125 6.125-0.754-0.754 6.125-6.125 0.754 0.754z"></path>
</symbol>
<symbol id="icon-image" viewBox="0 0 16 16">
<title>image</title>
<path class="path1" d="M14.998 3c0.001 0.001 0.001 0.001 0.002 0.002v11.996c-0.001 0.001-0.001 0.001-0.002 0.002h-13.996c-0.001-0.001-0.001-0.001-0.002-0.002v-11.996c0.001-0.001 0.001-0.001 0.002-0.002h13.996zM15 2h-14c-0.55 0-1 0.45-1 1v12c0 0.55 0.45 1 1 1h14c0.55 0 1-0.45 1-1v-12c0-0.55-0.45-1-1-1v0z"></path>
<path class="path2" d="M13 5.5c0 0.828-0.672 1.5-1.5 1.5s-1.5-0.672-1.5-1.5 0.672-1.5 1.5-1.5 1.5 0.672 1.5 1.5z"></path>
<path class="path3" d="M14 14h-12v-2l3.5-6 4 5h1l3.5-3z"></path>
</symbol>
<symbol id="icon-folder-open" viewBox="0 0 16 16">
<title>folder-open</title>
<path class="path1" d="M13 16l3-8h-13l-3 8zM2 7l-2 9v-13h4.5l2 2h6.5v2z"></path>
</symbol>
<symbol id="icon-price-tag" viewBox="0 0 16 16">
<title>price-tag</title>
<path class="path1" d="M14.33 2.239h-5.239c-0.36 0-0.863 0.208-1.118 0.463l-6.495 6.495c-0.255 0.255-0.255 0.671 0 0.926l5.622 5.622c0.255 0.255 0.671 0.255 0.926 0l6.495-6.495c0.255-0.255 0.463-0.758 0.463-1.118v-5.239c0-0.36-0.295-0.655-0.655-0.655zM11.056 7.477c-0.723 0-1.31-0.586-1.31-1.31s0.586-1.31 1.31-1.31 1.31 0.586 1.31 1.31-0.586 1.31-1.31 1.31z"></path>
</symbol>
<symbol id="icon-phone" viewBox="0 0 16 16">
<title>phone</title>
<path class="path1" d="M10.8 10.4c-0.933 0.933-0.933 1.867-1.867 1.867s-1.867-0.933-2.8-1.867-1.867-1.867-1.867-2.8 0.933-0.933 1.867-1.867-1.867-3.733-2.8-3.733-2.8 2.8-2.8 2.8c0 1.867 1.918 5.651 3.733 7.467s5.6 3.733 7.467 3.733c0 0 2.8-1.867 2.8-2.8s-2.8-3.733-3.733-2.8z"></path>
</symbol>
<symbol id="icon-address-book" viewBox="0 0 16 16">
<title>address-book</title>
<path class="path1" d="M3.625 2v14h10.5v-14h-10.5zM8.875 5.505c0.964 0 1.745 0.781 1.745 1.745s-0.781 1.745-1.745 1.745-1.745-0.781-1.745-1.745 0.781-1.745 1.745-1.745v0zM11.5 12.5h-5.25v-0.875c0-0.967 0.783-1.75 1.75-1.75v0h1.75c0.967 0 1.75 0.783 1.75 1.75v0.875z"></path>
<path class="path2" d="M1.875 2.875h1.313v2.625h-1.313v-2.625z"></path>
<path class="path3" d="M1.875 6.375h1.313v2.625h-1.313v-2.625z"></path>
<path class="path4" d="M1.875 9.875h1.313v2.625h-1.313v-2.625z"></path>
<path class="path5" d="M1.875 13.375h1.313v2.625h-1.313v-2.625z"></path>
</symbol>
<symbol id="icon-envelop" viewBox="0 0 16 16">
<title>envelop</title>
<path class="path1" d="M14.5 3h-13c-0.825 0-1.5 0.675-1.5 1.5v10c0 0.825 0.675 1.5 1.5 1.5h13c0.825 0 1.5-0.675 1.5-1.5v-10c0-0.825-0.675-1.5-1.5-1.5zM6.23 9.6l-4.23 3.295v-7.838l4.23 4.543zM2.756 5h10.488l-5.244 3.938-5.244-3.938zM6.395 9.777l1.605 1.723 1.605-1.723 3.29 4.223h-9.79l3.29-4.223zM9.77 9.6l4.23-4.543v7.838l-4.23-3.295z"></path>
</symbol>
<symbol id="icon-map" viewBox="0 0 16 16">
<title>map</title>
<path class="path1" d="M0.533 4.333l4.667-1.867v11.2l-4.667 1.867z"></path>
<path class="path2" d="M6.133 2l4.667 2.8v10.733l-4.667-2.333z"></path>
<path class="path3" d="M11.733 4.8l3.733-2.8v11.2l-3.733 2.8z"></path>
</symbol>
<symbol id="icon-clock" viewBox="0 0 16 16">
<title>clock</title>
<path class="path1" d="M10.006 12.244l-2.881-2.881v-3.862h1.75v3.138l2.369 2.369zM8 2c-3.866 0-7 3.134-7 7s3.134 7 7 7 7-3.134 7-7-3.134-7-7-7zM8 14.25c-2.899 0-5.25-2.351-5.25-5.25s2.351-5.25 5.25-5.25c2.899 0 5.25 2.351 5.25 5.25s-2.351 5.25-5.25 5.25z"></path>
</symbol>
<symbol id="icon-calendar" viewBox="0 0 16 16">
<title>calendar</title>
<path class="path1" d="M5.375 7.25h1.75v1.75h-1.75zM8 7.25h1.75v1.75h-1.75zM10.625 7.25h1.75v1.75h-1.75zM2.75 12.5h1.75v1.75h-1.75zM5.375 12.5h1.75v1.75h-1.75zM8 12.5h1.75v1.75h-1.75zM5.375 9.875h1.75v1.75h-1.75zM8 9.875h1.75v1.75h-1.75zM10.625 9.875h1.75v1.75h-1.75zM2.75 9.875h1.75v1.75h-1.75zM12.375 2v0.875h-1.75v-0.875h-6.125v0.875h-1.75v-0.875h-1.75v14h13.125v-14h-1.75zM13.25 15.125h-11.375v-9.625h11.375v9.625z"></path>
</symbol>
<symbol id="icon-printer" viewBox="0 0 16 16">
<title>printer</title>
<path class="path1" d="M4 2h8v2h-8v-2z"></path>
<path class="path2" d="M15 5h-14c-0.55 0-1 0.45-1 1v5c0 0.55 0.45 1 1 1h3v4h8v-4h3c0.55 0 1-0.45 1-1v-5c0-0.55-0.45-1-1-1zM2 8c-0.552 0-1-0.448-1-1s0.448-1 1-1 1 0.448 1 1-0.448 1-1 1zM11 15h-6v-5h6v5z"></path>
</symbol>
<symbol id="icon-bubble2" viewBox="0 0 16 16">
<title>bubble2</title>
<path class="path1" d="M8 3.874c-0.801 0-1.575 0.126-2.3 0.375-0.681 0.234-1.288 0.565-1.803 0.984-0.966 0.785-1.497 1.793-1.497 2.841 0 0.588 0.163 1.158 0.485 1.694 0.332 0.553 0.831 1.059 1.444 1.462 0.443 0.292 0.741 0.758 0.819 1.282 0.026 0.175 0.043 0.351 0.049 0.527 0.109-0.090 0.215-0.187 0.319-0.291 0.352-0.352 0.828-0.547 1.32-0.547 0.078 0 0.157 0.005 0.236 0.015 0.306 0.039 0.618 0.059 0.929 0.059 0.801 0 1.575-0.126 2.3-0.375 0.681-0.234 1.288-0.565 1.803-0.984 0.966-0.784 1.497-1.793 1.497-2.841s-0.532-2.056-1.497-2.841c-0.515-0.418-1.122-0.749-1.803-0.984-0.725-0.249-1.499-0.375-2.3-0.375zM8 2.007v0c4.124 0 7.466 2.716 7.466 6.066s-3.343 6.066-7.466 6.066c-0.396 0-0.785-0.025-1.164-0.074-1.604 1.604-3.518 1.891-5.369 1.934v-0.393c0.999-0.49 1.867-1.382 1.867-2.401 0-0.142-0.011-0.282-0.032-0.418-1.689-1.112-2.768-2.811-2.768-4.715 0-3.35 3.343-6.066 7.466-6.066z"></path>
</symbol>
<symbol id="icon-user" viewBox="0 0 16 16">
<title>user</title>
<path class="path1" d="M9.077 11.736v-0.888c1.186-0.668 2.154-2.335 2.154-4.002 0-2.676 0-4.846-3.231-4.846s-3.231 2.17-3.231 4.846c0 1.667 0.968 3.333 2.154 4.002v0.888c-3.653 0.299-6.462 2.094-6.462 4.264h15.077c0-2.17-2.808-3.965-6.462-4.264z"></path>
</symbol>
<symbol id="icon-search" viewBox="0 0 16 16">
<title>search</title>
<path class="path1" d="M14.576 13.762l-3.321-2.825c-0.343-0.309-0.71-0.451-1.007-0.437 0.784-0.918 1.258-2.11 1.258-3.412 0-2.904-2.354-5.258-5.258-5.258s-5.258 2.354-5.258 5.258 2.354 5.258 5.258 5.258c1.302 0 2.493-0.474 3.412-1.258-0.014 0.297 0.128 0.664 0.437 1.007l2.825 3.321c0.484 0.537 1.274 0.583 1.756 0.101s0.437-1.272-0.101-1.756zM6.247 10.594c-1.936 0-3.505-1.569-3.505-3.505s1.569-3.505 3.505-3.505 3.505 1.569 3.505 3.505-1.569 3.505-3.505 3.505z"></path>
</symbol>
<symbol id="icon-bin" viewBox="0 0 16 16">
<title>bin</title>
<path class="path1" d="M2.75 6.375v8.75c0 0.481 0.394 0.875 0.875 0.875h7.875c0.481 0 0.875-0.394 0.875-0.875v-8.75h-9.625zM5.375 14.25h-0.875v-6.125h0.875v6.125zM7.125 14.25h-0.875v-6.125h0.875v6.125zM8.875 14.25h-0.875v-6.125h0.875v6.125zM10.625 14.25h-0.875v-6.125h0.875v6.125z"></path>
<path class="path2" d="M12.594 3.75h-2.844v-1.094c0-0.361-0.295-0.656-0.656-0.656h-3.063c-0.361 0-0.656 0.295-0.656 0.656v1.094h-2.844c-0.361 0-0.656 0.295-0.656 0.656v1.094h11.375v-1.094c0-0.361-0.295-0.656-0.656-0.656zM8.875 3.75h-2.625v-0.864h2.625v0.864z"></path>
</symbol>
<symbol id="icon-menu" viewBox="0 0 16 16">
<title>menu</title>
<path class="path1" d="M0.364 4h15.273v3.273h-15.273zM0.364 8.364h15.273v3.273h-15.273zM0.364 12.727h15.273v3.273h-15.273z"></path>
</symbol>
<symbol id="icon-upload2" viewBox="0 0 16 16">
<title>upload2</title>
<path class="path1" d="M0.552 15.069h14.897v0.931h-14.897zM15.448 13.207v0.931h-14.897v-0.931l1.862-3.724h3.724v1.862h3.724v-1.862h3.724zM3.81 6.69l4.19-4.19 4.19 4.19h-3.259v3.724h-1.862v-3.724z"></path>
</symbol>
<symbol id="icon-sphere" viewBox="0 0 16 16">
<title>sphere</title>
<path class="path1" d="M7.533 2c-3.866 0-7 3.134-7 7s3.134 7 7 7c3.866 0 7-3.134 7-7s-3.134-7-7-7zM11.494 11.333c0.125-0.59 0.204-1.216 0.23-1.867h1.859c-0.049 0.645-0.199 1.27-0.447 1.867h-1.641zM3.573 6.667c-0.125 0.59-0.204 1.216-0.23 1.867h-1.859c0.049-0.644 0.199-1.27 0.447-1.867h1.641zM10.538 6.667c0.14 0.597 0.225 1.223 0.252 1.867h-2.79v-1.867h2.538zM8 5.733v-2.732c0.213 0.062 0.424 0.166 0.63 0.312 0.388 0.273 0.759 0.694 1.072 1.218 0.217 0.362 0.405 0.764 0.561 1.203h-2.264zM5.364 4.53c0.314-0.523 0.685-0.944 1.072-1.218 0.207-0.146 0.418-0.25 0.63-0.312v2.732h-2.264c0.157-0.438 0.344-0.841 0.561-1.203zM7.067 6.667v1.867h-2.79c0.027-0.644 0.112-1.269 0.252-1.867h2.538zM1.932 11.333c-0.249-0.596-0.399-1.222-0.447-1.867h1.859c0.026 0.651 0.105 1.277 0.23 1.867h-1.641zM4.277 9.467h2.79v1.867h-2.538c-0.14-0.597-0.225-1.223-0.252-1.867zM7.067 12.267v2.732c-0.213-0.062-0.424-0.166-0.63-0.312-0.388-0.273-0.759-0.694-1.072-1.217-0.217-0.362-0.405-0.764-0.561-1.203h2.264zM9.703 13.47c-0.314 0.523-0.685 0.944-1.072 1.217-0.207 0.146-0.418 0.25-0.63 0.312v-2.732h2.264c-0.157 0.438-0.344 0.841-0.561 1.203zM8 11.333v-1.867h2.79c-0.027 0.644-0.112 1.269-0.252 1.867h-2.538zM11.724 8.533c-0.026-0.651-0.105-1.277-0.23-1.867h1.641c0.249 0.596 0.399 1.222 0.447 1.867h-1.859zM12.647 5.733h-1.399c-0.272-0.857-0.647-1.608-1.098-2.208 0.62 0.297 1.182 0.694 1.673 1.185 0.313 0.313 0.589 0.655 0.824 1.023zM3.244 4.71c0.491-0.491 1.053-0.889 1.673-1.185-0.451 0.6-0.827 1.351-1.098 2.208h-1.399c0.235-0.368 0.511-0.71 0.824-1.023zM2.42 12.267h1.399c0.272 0.857 0.647 1.608 1.098 2.208-0.62-0.297-1.182-0.694-1.673-1.185-0.313-0.313-0.589-0.655-0.824-1.023zM11.823 13.29c-0.491 0.491-1.053 0.889-1.673 1.185 0.451-0.6 0.827-1.351 1.098-2.208h1.399c-0.235 0.368-0.511 0.71-0.824 1.023z"></path>
</symbol>
<symbol id="icon-link" viewBox="0 0 16 16">
<title>link</title>
<path class="path1" d="M7.022 10.874c-0.181 0-0.363-0.069-0.501-0.207-1.296-1.296-1.296-3.405 0-4.702l2.616-2.616c0.628-0.628 1.463-0.974 2.351-0.974s1.723 0.346 2.351 0.974c1.296 1.296 1.296 3.405 0 4.702l-1.196 1.196c-0.277 0.277-0.725 0.277-1.002 0s-0.277-0.725 0-1.002l1.196-1.196c0.744-0.744 0.744-1.954 0-2.698-0.36-0.36-0.839-0.559-1.349-0.559s-0.989 0.198-1.349 0.559l-2.616 2.616c-0.744 0.744-0.744 1.954 0 2.698 0.277 0.277 0.277 0.725 0 1.002-0.138 0.138-0.32 0.207-0.501 0.207z"></path>
<path class="path2" d="M4.512 16c-0.888 0-1.723-0.346-2.351-0.974-1.296-1.296-1.296-3.405 0-4.702l1.196-1.196c0.277-0.277 0.725-0.277 1.002 0s0.277 0.725 0 1.002l-1.196 1.196c-0.744 0.744-0.744 1.954 0 2.698 0.36 0.36 0.839 0.559 1.349 0.559s0.989-0.198 1.349-0.559l2.616-2.616c0.744-0.744 0.744-1.954 0-2.698-0.277-0.277-0.277-0.725 0-1.002s0.725-0.277 1.002 0c1.296 1.296 1.296 3.405 0 4.702l-2.616 2.616c-0.628 0.628-1.463 0.974-2.351 0.974z"></path>
</symbol>
<symbol id="icon-attachment" viewBox="0 0 16 16">
<title>attachment</title>
<path class="path1" d="M10.118 5.973l-0.894-0.894-4.472 4.471c-0.741 0.741-0.741 1.942 0 2.683s1.942 0.741 2.683 0l5.367-5.366c1.235-1.235 1.235-3.237 0-4.471s-3.237-1.235-4.472 0l-5.635 5.634c-0.004 0.004-0.008 0.008-0.012 0.012-1.723 1.722-1.723 4.514 0 6.236s4.514 1.722 6.237 0c0.004-0.004 0.007-0.008 0.011-0.012l0 0 3.846-3.846-0.895-0.894-3.846 3.845c-0.004 0.004-0.008 0.008-0.012 0.012-1.226 1.226-3.222 1.226-4.449 0s-1.226-3.221 0-4.447c0.004-0.004 0.008-0.008 0.012-0.012l-0.001-0.001 5.635-5.634c0.74-0.74 1.943-0.74 2.683 0s0.74 1.944 0 2.683l-5.367 5.366c-0.247 0.247-0.648 0.247-0.895 0s-0.246-0.648 0-0.894l4.472-4.472z"></path>
</symbol>
<symbol id="icon-warning" viewBox="0 0 16 16">
<title>warning</title>
<path class="path1" d="M8 3.268l5.867 11.693h-11.733l5.867-11.693zM8 2c-0.302 0-0.603 0.203-0.832 0.61l-5.976 11.91c-0.458 0.814-0.068 1.48 0.865 1.48h11.885c0.934 0 1.323-0.666 0.865-1.48h0l-5.976-11.91c-0.229-0.407-0.531-0.61-0.832-0.61v0z"></path>
<path class="path2" d="M8.875 13.375c0 0.483-0.392 0.875-0.875 0.875s-0.875-0.392-0.875-0.875c0-0.483 0.392-0.875 0.875-0.875s0.875 0.392 0.875 0.875z"></path>
<path class="path3" d="M8 11.625c-0.483 0-0.875-0.392-0.875-0.875v-2.625c0-0.483 0.392-0.875 0.875-0.875s0.875 0.392 0.875 0.875v2.625c0 0.483-0.392 0.875-0.875 0.875z"></path>
</symbol>
<symbol id="icon-notification" viewBox="0 0 16 16">
<title>notification</title>
<path class="path1" d="M8 3.313c-1.519 0-2.947 0.592-4.022 1.666s-1.666 2.502-1.666 4.022c0 1.519 0.592 2.947 1.666 4.022s2.502 1.666 4.022 1.666c1.519 0 2.947-0.592 4.022-1.666s1.666-2.502 1.666-4.022c0-1.519-0.592-2.947-1.666-4.022s-2.502-1.666-4.022-1.666zM8 2v0c3.866 0 7 3.134 7 7s-3.134 7-7 7c-3.866 0-7-3.134-7-7s3.134-7 7-7zM7.125 11.625h1.75v1.75h-1.75zM7.125 4.625h1.75v5.25h-1.75z"></path>
</symbol>
<symbol id="icon-question" viewBox="0 0 16 16">
<title>question</title>
<path class="path1" d="M7.125 11.625h1.75v1.75h-1.75zM10.625 5.5c0.483 0 0.875 0.392 0.875 0.875v2.625l-2.625 1.75h-1.75v-0.875l2.625-1.75v-0.875h-4.375v-1.75h5.25zM8 3.313c-1.519 0-2.947 0.592-4.022 1.666s-1.666 2.502-1.666 4.022c0 1.519 0.592 2.947 1.666 4.022s2.502 1.666 4.022 1.666c1.519 0 2.947-0.592 4.022-1.666s1.666-2.502 1.666-4.022c0-1.519-0.592-2.947-1.666-4.022s-2.502-1.666-4.022-1.666zM8 2v0c3.866 0 7 3.134 7 7s-3.134 7-7 7c-3.866 0-7-3.134-7-7s3.134-7 7-7z"></path>
</symbol>
<symbol id="icon-plus" viewBox="0 0 16 16">
<title>plus</title>
<path class="path1" d="M14.563 7.25h-4.813v-4.813c0-0.242-0.196-0.438-0.438-0.438h-2.625c-0.242 0-0.438 0.196-0.438 0.438v4.813h-4.813c-0.242 0-0.438 0.196-0.438 0.438v2.625c0 0.242 0.196 0.438 0.438 0.438h4.813v4.813c0 0.242 0.196 0.438 0.438 0.438h2.625c0.242 0 0.438-0.196 0.438-0.438v-4.813h4.813c0.242 0 0.438-0.196 0.438-0.438v-2.625c0-0.242-0.196-0.438-0.438-0.438z"></path>
</symbol>
<symbol id="icon-minus" viewBox="0 0 16 16">
<title>minus</title>
<path class="path1" d="M2 7.375v2.25c0 0.207 0.168 0.375 0.375 0.375h11.25c0.207 0 0.375-0.168 0.375-0.375v-2.25c0-0.207-0.168-0.375-0.375-0.375h-11.25c-0.207 0-0.375 0.168-0.375 0.375z"></path>
</symbol>
<symbol id="icon-info" viewBox="0 0 16 16">
<title>info</title>
<path class="path1" d="M7.125 6.156c0-0.361 0.295-0.656 0.656-0.656h0.438c0.361 0 0.656 0.295 0.656 0.656v0.438c0 0.361-0.295 0.656-0.656 0.656h-0.438c-0.361 0-0.656-0.295-0.656-0.656v-0.438z"></path>
<path class="path2" d="M9.75 12.5h-3.5v-0.875h0.875v-2.625h-0.875v-0.875h2.625v3.5h0.875z"></path>
<path class="path3" d="M8 2c-3.866 0-7 3.134-7 7s3.134 7 7 7 7-3.134 7-7-3.134-7-7-7zM8 14.688c-3.141 0-5.688-2.546-5.688-5.688s2.546-5.688 5.688-5.688 5.688 2.546 5.688 5.688-2.546 5.688-5.688 5.688z"></path>
</symbol>
<symbol id="icon-cancel-circle" viewBox="0 0 16 16">
<title>cancel-circle</title>
<path class="path1" d="M8 2c-3.866 0-7 3.134-7 7s3.134 7 7 7 7-3.134 7-7-3.134-7-7-7zM8 14.688c-3.141 0-5.688-2.546-5.688-5.688s2.546-5.688 5.688-5.688 5.688 2.546 5.688 5.688-2.546 5.688-5.688 5.688z"></path>
<path class="path2" d="M10.188 5.5l-2.188 2.188-2.188-2.188-1.313 1.313 2.188 2.188-2.188 2.188 1.313 1.313 2.188-2.188 2.188 2.188 1.313-1.313-2.188-2.188 2.188-2.188z"></path>
</symbol>
<symbol id="icon-cross" viewBox="0 0 16 16">
<title>cross</title>
<path class="path1" d="M14.388 13.413c-0-0-0-0-0-0l-3.948-3.948 3.948-3.948c0-0 0-0 0-0 0.043-0.043 0.073-0.092 0.093-0.145 0.054-0.145 0.023-0.314-0.093-0.43l-1.865-1.865c-0.116-0.116-0.285-0.147-0.43-0.093-0.053 0.020-0.103 0.050-0.145 0.093 0 0-0 0-0 0l-3.948 3.948-3.948-3.948c-0-0-0-0-0-0-0.043-0.042-0.092-0.073-0.145-0.093-0.145-0.054-0.314-0.023-0.43 0.093l-1.865 1.865c-0.116 0.116-0.147 0.285-0.093 0.43 0.020 0.053 0.050 0.103 0.093 0.145 0 0 0 0 0 0l3.948 3.948-3.948 3.948c-0 0-0 0-0 0-0.042 0.043-0.073 0.092-0.093 0.145-0.054 0.145-0.023 0.314 0.093 0.43l1.865 1.865c0.116 0.116 0.285 0.147 0.43 0.093 0.053-0.020 0.103-0.050 0.145-0.093 0-0 0-0 0-0l3.948-3.948 3.948 3.948c0 0 0 0 0 0 0.043 0.043 0.092 0.073 0.145 0.093 0.145 0.054 0.314 0.023 0.43-0.093l1.865-1.865c0.116-0.116 0.147-0.285 0.093-0.43-0.020-0.053-0.050-0.103-0.093-0.145z"></path>
</symbol>
<symbol id="icon-checkmark" viewBox="0 0 16 16">
<title>checkmark</title>
<path class="path1" d="M13.060 3.48l-6.9 6.9-3.22-3.22-2.3 2.3 5.52 5.52 9.2-9.2z"></path>
</symbol>
<symbol id="icon-arrow-up" viewBox="0 0 16 16">
<title>arrow-up</title>
<path class="path1" d="M8 2.5l-6.532 6.532h3.919v6.968h5.226v-6.968h3.919z"></path>
</symbol>
<symbol id="icon-arrow-right" viewBox="0 0 16 16">
<title>arrow-right</title>
<path class="path1" d="M14.5 9l-6.5-6.5v3.9h-6.933v5.2h6.933v3.9z"></path>
</symbol>
<symbol id="icon-arrow-down" viewBox="0 0 16 16">
<title>arrow-down</title>
<path class="path1" d="M8 16l6.532-6.532h-3.919v-6.968h-5.226v6.968h-3.919z"></path>
</symbol>
<symbol id="icon-arrow-left" viewBox="0 0 16 16">
<title>arrow-left</title>
<path class="path1" d="M1.5 9l6.5 6.5v-3.9h6.933v-5.2h-6.933v-3.9z"></path>
</symbol>
<symbol id="icon-google-plus" viewBox="0 0 16 16">
<title>google-plus</title>
<path class="path1" d="M5.091 8.147v1.747h2.888c-0.116 0.75-0.872 2.197-2.888 2.197-1.737 0-3.156-1.441-3.156-3.216s1.419-3.216 3.156-3.216c0.991 0 1.65 0.422 2.028 0.784l1.381-1.331c-0.888-0.828-2.037-1.331-3.409-1.331-2.816 0.003-5.091 2.278-5.091 5.094s2.275 5.091 5.091 5.091c2.937 0 4.888-2.066 4.888-4.975 0-0.334-0.037-0.591-0.081-0.844h-4.806z"></path>
<path class="path2" d="M16 8h-1.5v-1.5h-1.5v1.5h-1.5v1.5h1.5v1.5h1.5v-1.5h1.5z"></path>
</symbol>
<symbol id="icon-facebook" viewBox="0 0 16 16">
<title>facebook</title>
<path class="path1" d="M9.313 4.625h2.188v-2.625h-2.188c-1.689 0-3.063 1.374-3.063 3.063v1.313h-1.75v2.625h1.75v7h2.625v-7h2.188l0.438-2.625h-2.625v-1.313c0-0.237 0.2-0.438 0.438-0.438z"></path>
</symbol>
<symbol id="icon-instagram" viewBox="0 0 16 16">
<title>instagram</title>
<path class="path1" d="M13.688 2h-11.375c-0.722 0-1.313 0.591-1.313 1.313v11.375c0 0.722 0.591 1.313 1.313 1.313h11.375c0.722 0 1.313-0.591 1.313-1.313v-11.375c0-0.722-0.591-1.313-1.313-1.313zM10.625 4.188c0-0.241 0.197-0.438 0.438-0.438h1.75c0.241 0 0.438 0.197 0.438 0.438v1.75c0 0.241-0.197 0.438-0.438 0.438h-1.75c-0.241 0-0.438-0.197-0.438-0.438v-1.75zM8 6.375c1.449 0 2.625 1.176 2.625 2.625s-1.176 2.625-2.625 2.625c-1.449 0-2.625-1.176-2.625-2.625s1.176-2.625 2.625-2.625zM13.25 13.813v0c0 0.241-0.197 0.438-0.438 0.438h-9.625c-0.241 0-0.438-0.197-0.438-0.438v0-5.688h0.962c-0.057 0.282-0.087 0.574-0.087 0.875 0 2.417 1.958 4.375 4.375 4.375s4.375-1.958 4.375-4.375c0-0.301-0.030-0.593-0.088-0.875h0.963v5.688z"></path>
</symbol>
<symbol id="icon-twitter" viewBox="0 0 16 16">
<title>twitter</title>
<path class="path1" d="M16 4.537c-0.588 0.263-1.222 0.438-1.884 0.516 0.678-0.406 1.197-1.050 1.444-1.816-0.634 0.375-1.338 0.65-2.084 0.797-0.6-0.638-1.453-1.034-2.397-1.034-1.813 0-3.281 1.469-3.281 3.281 0 0.256 0.028 0.506 0.084 0.747-2.728-0.138-5.147-1.444-6.766-3.431-0.281 0.484-0.444 1.050-0.444 1.65 0 1.138 0.578 2.144 1.459 2.731-0.538-0.016-1.044-0.166-1.488-0.409 0 0.013 0 0.028 0 0.041 0 1.591 1.131 2.919 2.634 3.219-0.275 0.075-0.566 0.116-0.866 0.116-0.212 0-0.416-0.022-0.619-0.059 0.419 1.303 1.631 2.253 3.066 2.281-1.125 0.881-2.538 1.406-4.078 1.406-0.266 0-0.525-0.016-0.784-0.047 1.456 0.934 3.181 1.475 5.034 1.475 6.037 0 9.341-5.003 9.341-9.341 0-0.144-0.003-0.284-0.009-0.425 0.641-0.459 1.197-1.038 1.637-1.697z"></path>
</symbol>
<symbol id="icon-rss" viewBox="0 0 16 16">
<title>rss</title>
<path class="path1" d="M3.23 12.533c-0.955 0-1.73 0.779-1.73 1.728 0 0.954 0.776 1.724 1.73 1.724 0.958 0 1.733-0.77 1.733-1.724-0-0.949-0.775-1.728-1.733-1.728zM1.502 7.417v2.492c1.622 0 3.148 0.634 4.297 1.784 1.147 1.147 1.781 2.679 1.781 4.308h2.503c-0-4.733-3.85-8.583-8.58-8.583zM1.505 3v2.493c5.786 0 10.496 4.714 10.496 10.507h2.499c0-7.166-5.83-13-12.995-13z"></path>
</symbol>
<symbol id="icon-youtube" viewBox="0 0 16 16">
<title>youtube</title>
<path class="path1" d="M15.841 6.3c0 0-0.156-1.103-0.637-1.587-0.609-0.638-1.291-0.641-1.603-0.678-2.237-0.163-5.597-0.163-5.597-0.163h-0.006c0 0-3.359 0-5.597 0.163-0.313 0.037-0.994 0.041-1.603 0.678-0.481 0.484-0.634 1.588-0.634 1.588s-0.159 1.294-0.159 2.591v1.213c0 1.294 0.159 2.591 0.159 2.591s0.156 1.103 0.634 1.588c0.609 0.637 1.409 0.616 1.766 0.684 1.281 0.122 5.441 0.159 5.441 0.159s3.363-0.006 5.6-0.166c0.313-0.037 0.994-0.041 1.603-0.678 0.481-0.484 0.637-1.588 0.637-1.588s0.159-1.294 0.159-2.591v-1.213c-0.003-1.294-0.162-2.591-0.162-2.591zM6.347 11.575v-4.497l4.322 2.256-4.322 2.241z"></path>
</symbol>
<symbol id="icon-vimeo" viewBox="0 0 16 16">
<title>vimeo</title>
<path class="path1" d="M15.994 5.362c-0.072 1.556-1.159 3.691-3.263 6.397-2.175 2.825-4.016 4.241-5.522 4.241-0.931 0-1.722-0.859-2.366-2.581-0.431-1.578-0.859-3.156-1.291-4.734-0.478-1.722-0.991-2.581-1.541-2.581-0.119 0-0.538 0.253-1.256 0.753l-0.753-0.969c0.791-0.694 1.569-1.388 2.334-2.081 1.053-0.909 1.844-1.388 2.372-1.438 1.244-0.119 2.013 0.731 2.3 2.553 0.309 1.966 0.525 3.188 0.647 3.666 0.359 1.631 0.753 2.447 1.184 2.447 0.334 0 0.838-0.528 1.509-1.588 0.669-1.056 1.028-1.862 1.078-2.416 0.097-0.912-0.262-1.372-1.078-1.372-0.384 0-0.778 0.088-1.184 0.263 0.787-2.575 2.287-3.825 4.506-3.753 1.641 0.044 2.416 1.109 2.322 3.194z"></path>
</symbol>
<symbol id="icon-dribbble" viewBox="0 0 16 16">
<title>dribbble</title>
<path class="path1" d="M8 16c-3.861 0-7-3.139-7-7s3.139-7 7-7c3.861 0 7 3.139 7 7s-3.139 7-7 7v0zM13.904 9.957c-0.205-0.066-1.851-0.555-3.724-0.254 0.782 2.149 1.099 3.899 1.162 4.263 1.34-0.908 2.297-2.343 2.562-4.009v0zM10.335 14.512c-0.090-0.525-0.435-2.352-1.274-4.534-0.014 0.005-0.027 0.008-0.038 0.014-3.374 1.176-4.586 3.514-4.692 3.732 1.014 0.79 2.289 1.263 3.67 1.263 0.829 0 1.619-0.17 2.335-0.476v0zM3.557 13.006c0.137-0.232 1.777-2.948 4.859-3.946 0.077-0.025 0.156-0.049 0.235-0.071-0.15-0.339-0.314-0.681-0.484-1.014-2.983 0.894-5.882 0.856-6.144 0.853-0.003 0.060-0.003 0.12-0.003 0.183 0 1.534 0.582 2.937 1.537 3.995v0zM2.148 7.783c0.268 0.003 2.732 0.014 5.529-0.727-0.99-1.761-2.059-3.243-2.218-3.459-1.673 0.79-2.926 2.332-3.311 4.186v0zM6.6 3.195c0.164 0.221 1.252 1.701 2.231 3.5 2.127-0.796 3.027-2.007 3.134-2.16-1.055-0.938-2.445-1.507-3.965-1.507-0.481 0.003-0.952 0.060-1.4 0.167v0zM12.629 5.229c-0.126 0.17-1.129 1.455-3.339 2.357 0.139 0.284 0.273 0.574 0.396 0.867 0.044 0.104 0.088 0.205 0.129 0.309 1.991-0.249 3.968 0.15 4.164 0.191-0.014-1.411-0.52-2.707-1.351-3.724v0z"></path>
</symbol>
<symbol id="icon-behance" viewBox="0 0 16 16">
<title>behance</title>
<path class="path1" d="M4.641 5.706c0.472 0 0.897 0.041 1.284 0.125 0.388 0.081 0.716 0.219 0.994 0.406 0.275 0.188 0.487 0.438 0.644 0.75 0.15 0.309 0.225 0.697 0.225 1.156 0 0.497-0.112 0.909-0.338 1.241-0.228 0.331-0.559 0.6-1.003 0.813 0.606 0.175 1.053 0.481 1.353 0.916 0.3 0.438 0.444 0.963 0.444 1.581 0 0.5-0.097 0.928-0.287 1.291-0.194 0.366-0.456 0.662-0.778 0.891-0.325 0.231-0.7 0.4-1.119 0.509-0.416 0.109-0.844 0.166-1.287 0.166h-4.772v-9.844h4.641zM4.359 9.681c0.384 0 0.703-0.091 0.953-0.275 0.25-0.181 0.369-0.481 0.369-0.894 0-0.228-0.041-0.419-0.122-0.566-0.084-0.147-0.194-0.263-0.334-0.344-0.138-0.084-0.294-0.141-0.478-0.172-0.178-0.034-0.366-0.050-0.556-0.050h-2.025v2.3h2.194zM4.478 13.872c0.213 0 0.416-0.019 0.606-0.063 0.194-0.044 0.366-0.109 0.509-0.209 0.144-0.097 0.266-0.225 0.353-0.394 0.088-0.166 0.128-0.378 0.128-0.637 0-0.506-0.144-0.869-0.428-1.088-0.284-0.216-0.662-0.322-1.131-0.322h-2.35v2.709h2.313z"></path>
<path class="path2" d="M11.331 13.838c0.294 0.287 0.716 0.431 1.266 0.431 0.394 0 0.738-0.1 1.022-0.3s0.456-0.412 0.522-0.631h1.725c-0.278 0.859-0.697 1.469-1.272 1.838-0.566 0.369-1.259 0.556-2.063 0.556-0.563 0-1.066-0.091-1.519-0.269-0.453-0.181-0.831-0.434-1.15-0.766-0.309-0.331-0.553-0.725-0.725-1.188-0.169-0.459-0.256-0.969-0.256-1.519 0-0.534 0.088-1.031 0.262-1.491 0.178-0.463 0.422-0.859 0.747-1.194s0.706-0.6 1.156-0.794c0.447-0.194 0.941-0.291 1.488-0.291 0.603 0 1.131 0.116 1.584 0.353 0.45 0.234 0.822 0.55 1.113 0.944s0.497 0.847 0.625 1.353c0.128 0.506 0.172 1.034 0.137 1.588h-5.147c0 0.559 0.188 1.094 0.484 1.378zM13.578 10.094c-0.231-0.256-0.628-0.397-1.106-0.397-0.313 0-0.572 0.053-0.778 0.159-0.203 0.106-0.369 0.238-0.497 0.394-0.125 0.156-0.213 0.325-0.262 0.503-0.050 0.172-0.081 0.331-0.091 0.469h3.188c-0.047-0.5-0.219-0.869-0.453-1.128z"></path>
<path class="path3" d="M10.444 6.5h3.991v0.972h-3.991v-0.972z"></path>
</symbol>
<symbol id="icon-dropbox" viewBox="0 0 16 16">
<title>dropbox</title>
<path class="path1" d="M11.048 2.5l-3.048 2.613 3.919 2.613 3.048-2.613z"></path>
<path class="path2" d="M8 5.113l-3.048-2.613-3.919 2.613 3.048 2.613z"></path>
<path class="path3" d="M11.919 7.726l3.048 2.613-3.919 2.177-3.048-2.613z"></path>
<path class="path4" d="M8 9.903l-3.919-2.177-3.048 2.613 3.919 2.177z"></path>
<path class="path5" d="M10.942 13.572l-2.942-2.521-2.942 2.521-1.849-1.027v1.278l4.79 2.177 4.79-2.177v-1.278z"></path>
</symbol>
<symbol id="icon-github" viewBox="0 0 16 16">
<title>github</title>
<path class="path1" d="M8 2.331c-3.854 0-6.979 3.124-6.979 6.979 0 3.083 2 5.699 4.773 6.622 0.349 0.065 0.477-0.151 0.477-0.336 0-0.166-0.007-0.716-0.010-1.299-1.942 0.422-2.351-0.823-2.351-0.823-0.317-0.807-0.775-1.021-0.775-1.021-0.633-0.433 0.048-0.424 0.048-0.424 0.701 0.049 1.070 0.719 1.070 0.719 0.623 1.067 1.633 0.758 2.031 0.58 0.063-0.451 0.243-0.759 0.443-0.933-1.55-0.176-3.18-0.775-3.18-3.449 0-0.762 0.273-1.385 0.719-1.873-0.072-0.176-0.312-0.886 0.067-1.847 0 0 0.586-0.187 1.92 0.715 0.557-0.155 1.154-0.232 1.747-0.235 0.593 0.003 1.19 0.080 1.748 0.235 1.332-0.903 1.917-0.715 1.917-0.715 0.38 0.961 0.141 1.671 0.069 1.847 0.447 0.489 0.718 1.111 0.718 1.873 0 2.681-1.633 3.271-3.187 3.443 0.25 0.217 0.473 0.641 0.473 1.292 0 0.934-0.008 1.685-0.008 1.915 0 0.186 0.126 0.403 0.479 0.335 2.771-0.924 4.769-3.539 4.769-6.621 0-3.854-3.125-6.979-6.979-6.979z"></path>
</symbol>
<symbol id="icon-wordpress" viewBox="0 0 16 16">
<title>wordpress</title>
<path class="path1" d="M2.75 9c0 2.024 1.208 3.773 2.959 4.602l-2.504-6.683c-0.291 0.636-0.455 1.34-0.455 2.081zM11.544 8.742c0-0.632-0.233-1.070-0.433-1.41-0.266-0.421-0.516-0.778-0.516-1.199 0-0.47 0.366-0.907 0.882-0.907 0.023 0 0.045 0.003 0.068 0.004-0.934-0.834-2.178-1.343-3.545-1.343-1.834 0-3.448 0.917-4.387 2.305 0.123 0.004 0.239 0.006 0.338 0.006 0.549 0 1.399-0.065 1.399-0.065 0.283-0.016 0.316 0.389 0.034 0.421 0 0-0.284 0.032-0.601 0.049l1.912 5.539 1.149-3.356-0.818-2.183c-0.283-0.016-0.551-0.049-0.551-0.049-0.283-0.016-0.25-0.438 0.033-0.421 0 0 0.867 0.065 1.383 0.065 0.549 0 1.399-0.065 1.399-0.065 0.283-0.016 0.316 0.389 0.033 0.421 0 0-0.285 0.032-0.601 0.049l1.897 5.496 0.524-1.704c0.227-0.708 0.399-1.215 0.399-1.653zM8.092 9.447l-1.575 4.458c0.471 0.135 0.968 0.208 1.483 0.208 0.611 0 1.198-0.103 1.743-0.29-0.014-0.022-0.027-0.045-0.038-0.070l-1.614-4.306zM12.607 6.547c0.023 0.163 0.035 0.338 0.035 0.526 0 0.519-0.1 1.102-0.399 1.831l-1.604 4.515c1.561-0.886 2.61-2.533 2.61-4.42 0-0.889-0.233-1.725-0.643-2.453zM8 2c-3.866 0-7 3.134-7 7s3.134 7 7 7 7-3.134 7-7-3.134-7-7-7zM8 15.125c-3.383 0-6.125-2.742-6.125-6.125s2.742-6.125 6.125-6.125 6.125 2.742 6.125 6.125-2.742 6.125-6.125 6.125z"></path>
</symbol>
<symbol id="icon-blogger" viewBox="0 0 16 16">
<title>blogger</title>
<path class="path1" d="M14.095 7.25h-0.785c-0.481 0-0.902-0.407-0.935-0.875v0c0-2.497-2.013-4.375-4.528-4.375h-2.294c-2.513 0-4.551 2.023-4.553 4.521v4.96c0 2.497 2.039 4.519 4.553 4.519h4.9c2.515 0 4.547-2.022 4.547-4.519v-3.204c0-0.499-0.402-1.027-0.905-1.027zM5.375 5.5h2.625c0.481 0 0.875 0.394 0.875 0.875s-0.394 0.875-0.875 0.875h-2.625c-0.481 0-0.875-0.394-0.875-0.875s0.394-0.875 0.875-0.875zM10.625 12.5h-5.25c-0.481 0-0.875-0.394-0.875-0.875s0.394-0.875 0.875-0.875h5.25c0.481 0 0.875 0.394 0.875 0.875s-0.394 0.875-0.875 0.875z"></path>
</symbol>
<symbol id="icon-tumblr" viewBox="0 0 16 16">
<title>tumblr</title>
<path class="path1" d="M8.813 8.688l-0 2.973c0 0.754-0.010 1.189 0.070 1.403 0.079 0.213 0.278 0.434 0.495 0.561 0.288 0.173 0.616 0.259 0.987 0.259 0.658 0 1.047-0.087 1.698-0.515v1.954c-0.555 0.261-1.039 0.414-1.489 0.52-0.451 0.105-0.938 0.158-1.461 0.158-0.594 0-0.945-0.075-1.402-0.224-0.457-0.151-0.846-0.366-1.168-0.642-0.323-0.278-0.546-0.574-0.671-0.887s-0.187-0.767-0.187-1.361v-4.559h-1.745v-1.841c0.51-0.166 1.081-0.404 1.444-0.713 0.365-0.31 0.657-0.682 0.877-1.116 0.221-0.434 0.373-0.987 0.455-1.657h2.096l-0 3.25h3.25v2.438h-3.25z"></path>
</symbol>
<symbol id="icon-skype" viewBox="0 0 16 16">
<title>skype</title>
<path class="path1" d="M6.904 3.499c-0.020-0.013-0.043-0.023-0.063-0.033-0.023 0.005-0.043 0.008-0.066 0.013l0.129 0.020z"></path>
<path class="path2" d="M1.97 8.367c-0.005 0.023-0.008 0.046-0.010 0.066 0.013 0.020 0.020 0.041 0.033 0.061l-0.023-0.127z"></path>
<path class="path3" d="M14.024 10.671c0.005-0.023 0.008-0.046 0.013-0.069-0.013-0.020-0.020-0.041-0.033-0.061l0.020 0.129z"></path>
<path class="path4" d="M9.015 15.498c0.020 0.013 0.043 0.023 0.063 0.033 0.023-0.005 0.046-0.008 0.069-0.010l-0.132-0.023z"></path>
<path class="path5" d="M14.037 10.602c-0.005 0.023-0.008 0.046-0.013 0.069l-0.023-0.132c0.013 0.023 0.023 0.043 0.036 0.063 0.066-0.365 0.102-0.738 0.102-1.111 0-0.827-0.162-1.632-0.482-2.388-0.31-0.731-0.751-1.388-1.315-1.951s-1.221-1.005-1.949-1.315c-0.756-0.32-1.561-0.482-2.388-0.482-0.391 0-0.782 0.036-1.162 0.109 0 0-0.003 0-0.003 0 0.020 0.010 0.043 0.020 0.063 0.033l-0.129-0.020c0.023-0.005 0.043-0.008 0.066-0.013-0.523-0.277-1.109-0.426-1.703-0.426-0.969 0-1.883 0.378-2.568 1.063s-1.063 1.599-1.063 2.568c0 0.617 0.16 1.226 0.457 1.761 0.005-0.023 0.008-0.046 0.010-0.066l0.023 0.129c-0.013-0.020-0.023-0.041-0.033-0.061-0.061 0.348-0.091 0.703-0.091 1.058 0 0.827 0.162 1.632 0.482 2.388 0.31 0.731 0.751 1.386 1.315 1.949s1.221 1.005 1.951 1.315c0.756 0.32 1.561 0.482 2.388 0.482 0.36 0 0.721-0.033 1.073-0.096-0.020-0.013-0.041-0.023-0.063-0.033l0.132 0.023c-0.023 0.005-0.046 0.008-0.069 0.010 0.543 0.307 1.16 0.472 1.787 0.472 0.969 0 1.883-0.378 2.568-1.063s1.063-1.599 1.063-2.568c-0.003-0.617-0.162-1.226-0.462-1.766zM8.028 13.249c-2.18 0-3.154-1.071-3.154-1.875 0-0.411 0.305-0.7 0.723-0.7 0.934 0 0.69 1.34 2.431 1.34 0.891 0 1.383-0.485 1.383-0.98 0-0.297-0.147-0.627-0.733-0.771l-1.939-0.485c-1.561-0.391-1.845-1.236-1.845-2.030 0-1.647 1.551-2.266 3.007-2.266 1.342 0 2.923 0.741 2.923 1.731 0 0.424-0.368 0.67-0.787 0.67-0.797 0-0.65-1.101-2.253-1.101-0.797 0-1.236 0.36-1.236 0.875s0.629 0.68 1.175 0.804l1.436 0.32c1.571 0.35 1.969 1.269 1.969 2.132 0 1.337-1.028 2.337-3.101 2.337z"></path>
</symbol>
<symbol id="icon-linkedin2" viewBox="0 0 16 16">
<title>linkedin2</title>
<path class="path1" d="M6 7h2.767v1.418h0.040c0.385-0.691 1.327-1.418 2.732-1.418 2.921 0 3.461 1.818 3.461 4.183v4.817h-2.885v-4.27c0-1.018-0.021-2.329-1.5-2.329-1.502 0-1.732 1.109-1.732 2.255v4.344h-2.883v-9z"></path>
<path class="path2" d="M1 7h3v9h-3v-9z"></path>
<path class="path3" d="M4 4.5c0 0.828-0.672 1.5-1.5 1.5s-1.5-0.672-1.5-1.5c0-0.828 0.672-1.5 1.5-1.5s1.5 0.672 1.5 1.5z"></path>
</symbol>
<symbol id="icon-pinterest2" viewBox="0 0 16 16">
<title>pinterest2</title>
<path class="path1" d="M8 2c-3.861 0-7 3.139-7 7s3.139 7 7 7 7-3.139 7-7-3.139-7-7-7zM8 15.065c-0.626 0-1.228-0.096-1.796-0.271 0.246-0.402 0.618-1.064 0.755-1.589 0.074-0.284 0.377-1.441 0.377-1.441 0.197 0.377 0.777 0.697 1.389 0.697 1.829 0 3.147-1.682 3.147-3.773 0-2.004-1.635-3.503-3.738-3.503-2.617 0-4.006 1.758-4.006 3.67 0 0.889 0.473 1.996 1.23 2.349 0.115 0.055 0.175 0.030 0.202-0.082 0.019-0.085 0.123-0.495 0.17-0.689 0.014-0.060 0.008-0.115-0.041-0.175-0.252-0.304-0.451-0.864-0.451-1.384 0-1.337 1.012-2.633 2.737-2.633 1.49 0 2.532 1.014 2.532 2.466 0 1.641-0.829 2.778-1.906 2.778-0.596 0-1.042-0.492-0.897-1.096 0.172-0.722 0.503-1.498 0.503-2.018 0-0.465-0.249-0.853-0.768-0.853-0.61 0-1.096 0.629-1.096 1.474 0 0.536 0.18 0.9 0.18 0.9s-0.602 2.54-0.711 3.013c-0.123 0.525-0.074 1.261-0.022 1.739-2.256-0.88-3.855-3.073-3.855-5.644 0-3.35 2.715-6.065 6.065-6.065s6.065 2.715 6.065 6.065c0 3.35-2.715 6.065-6.065 6.065z"></path>
</symbol>
<symbol id="icon-chrome" viewBox="0 0 16 16">
<title>chrome</title>
<path class="path1" d="M4.531 8.106l-2.003-3.47c1.283-1.606 3.257-2.635 5.472-2.635 2.563 0 4.803 1.377 6.023 3.432h-5.712c-0.103-0.009-0.206-0.014-0.311-0.014-1.666 0-3.070 1.144-3.469 2.687zM10.506 6.444h4.012c0.311 0.792 0.482 1.654 0.482 2.557 0 3.839-3.091 6.956-6.92 6.999l2.863-4.958c0.403-0.579 0.64-1.283 0.64-2.040 0-1-0.412-1.906-1.076-2.557zM5.457 9.001c0-1.402 1.141-2.543 2.543-2.543s2.543 1.141 2.543 2.543c0 1.402-1.141 2.543-2.543 2.543s-2.543-1.141-2.543-2.543zM8.96 12.452l-2.004 3.471c-3.371-0.504-5.955-3.411-5.955-6.922 0-1.247 0.327-2.418 0.898-3.432l2.858 4.95c0.572 1.218 1.811 2.064 3.244 2.064 0.332 0 0.654-0.046 0.96-0.131z"></path>
</symbol>
<symbol id="icon-firefox" viewBox="0 0 16 16">
<title>firefox</title>
<path class="path1" d="M14.866 7.484l-0.159 1.023c0 0-0.228-1.894-0.507-2.603-0.428-1.085-0.619-1.077-0.62-1.075 0.287 0.729 0.235 1.121 0.235 1.121s-0.508-1.385-1.852-1.826c-1.489-0.488-2.294-0.355-2.387-0.329-0.014-0-0.028-0-0.041-0 0.011 0.001 0.022 0.002 0.033 0.003-0 0-0.001 0.001-0.001 0.001 0.006 0.007 1.645 0.287 1.936 0.686 0 0-0.696 0-1.389 0.2-0.031 0.009 2.549 0.322 3.076 2.901 0 0-0.283-0.59-0.633-0.69 0.23 0.7 0.171 2.028-0.048 2.688-0.028 0.085-0.057-0.367-0.489-0.562 0.138 0.991-0.008 2.562-0.695 2.994-0.054 0.034 0.431-1.551 0.097-0.938-1.919 2.943-4.188 1.358-5.208 0.661 0.523 0.114 1.515-0.018 1.954-0.344 0.001-0 0.001-0.001 0.002-0.001 0.477-0.326 0.76-0.564 1.013-0.508s0.423-0.198 0.226-0.424c-0.197-0.226-0.677-0.538-1.325-0.368-0.457 0.12-1.024 0.626-1.889 0.113-0.664-0.393-0.726-0.72-0.732-0.947 0.016-0.080 0.037-0.155 0.062-0.224 0.076-0.213 0.308-0.278 0.437-0.329 0.219 0.038 0.407 0.106 0.605 0.207 0.003-0.066 0.003-0.153-0-0.252 0.019-0.038 0.007-0.151-0.023-0.29-0.018-0.139-0.046-0.282-0.091-0.413 0-0 0-0 0-0s0.001-0.001 0.002-0.001 0.002-0.002 0.003-0.003c0-0 0-0 0.001-0.001 0.001-0.002 0.002-0.004 0.003-0.006 0.014-0.062 0.162-0.182 0.346-0.311 0.165-0.115 0.359-0.238 0.512-0.333 0.135-0.084 0.238-0.146 0.26-0.163 0.008-0.006 0.018-0.014 0.029-0.022 0.002-0.002 0.004-0.003 0.006-0.005s0.003-0.002 0.004-0.003c0.073-0.058 0.181-0.167 0.204-0.398 0-0.001 0-0.001 0-0.002 0.001-0.007 0.001-0.014 0.002-0.021 0-0.005 0.001-0.010 0.001-0.015 0-0.004 0-0.008 0.001-0.011 0-0.009 0.001-0.018 0.001-0.028 0-0.001 0-0.001 0-0.002 0-0.022-0-0.046-0.001-0.070-0.001-0.014-0.002-0.026-0.004-0.037-0-0.001-0-0.001-0-0.002s-0-0.002-0.001-0.003-0.001-0.004-0.002-0.006c-0-0-0-0-0-0.001-0.001-0.002-0.002-0.004-0.002-0.006-0-0-0-0-0-0-0.024-0.055-0.112-0.076-0.477-0.082-0-0-0.001-0-0.001-0v0c-0.149-0.003-0.343-0.003-0.599-0.002-0.447 0.002-0.694-0.437-0.773-0.607 0.108-0.598 0.421-1.024 0.934-1.313 0.010-0.005 0.008-0.010-0.004-0.013 0.1-0.061-1.214-0.002-1.818 0.767-0.536-0.133-1.004-0.124-1.407-0.030-0.077-0.002-0.174-0.012-0.288-0.036-0.268-0.243-0.652-0.691-0.672-1.227 0 0-0.001 0.001-0.003 0.003-0-0.005-0.001-0.010-0.001-0.015 0 0-0.817 0.628-0.694 2.339-0 0.027-0.001 0.054-0.002 0.079-0.221 0.3-0.331 0.552-0.339 0.607-0.196 0.399-0.395 0.999-0.556 1.91 0 0 0.113-0.359 0.34-0.765-0.167 0.511-0.298 1.307-0.221 2.5 0 0 0.020-0.264 0.092-0.646 0.056 0.74 0.303 1.653 0.926 2.727 1.196 2.062 3.035 3.103 5.068 3.263 0.361 0.030 0.727 0.030 1.095 0.002 0.034-0.002 0.068-0.005 0.102-0.008 0.416-0.029 0.836-0.092 1.254-0.193 5.718-1.383 5.097-8.287 5.097-8.287z"></path>
</symbol>
<symbol id="icon-edge" viewBox="0 0 16 16">
<title>edge</title>
<path class="path1" d="M1.178 8.183c0.412-3.253 2.632-6.204 6.611-6.245 2.401 0.047 4.377 1.135 5.553 3.209 0.591 1.083 0.775 2.22 0.813 3.476v1.475h-8.828c0.041 3.641 5.358 3.517 7.647 1.912v2.965c-1.341 0.805-4.383 1.525-6.737 0.599-2.006-0.753-3.435-2.852-3.426-4.872-0.066-2.618 1.302-4.352 3.426-5.339-0.451 0.558-0.794 1.173-0.973 2.239h4.984c0 0 0.291-2.978-2.822-2.978-2.934 0.102-5.050 1.808-6.248 3.558v0z"></path>
</symbol>
<symbol id="icon-safari" viewBox="0 0 16 16">
<title>safari</title>
<path class="path1" d="M8 2c-3.866 0-7 3.134-7 7s3.134 7 7 7 7-3.134 7-7-3.134-7-7-7zM14.103 8.464l-0.014-0.145c0.003 0.049 0.008 0.096 0.014 0.145zM13.146 5.675l-0.098-0.148c0.033 0.049 0.066 0.098 0.098 0.148zM12.766 5.153l-0.060-0.074c0.022 0.025 0.041 0.049 0.060 0.074zM11.918 4.291l-0.074-0.060c0.027 0.022 0.049 0.041 0.074 0.060zM11.473 3.952l-0.148-0.098c0.049 0.033 0.098 0.066 0.148 0.098zM8.681 2.913l-0.148-0.014c0.049 0.003 0.098 0.008 0.148 0.014zM7.464 2.897l-0.148 0.014c0.049-0.003 0.098-0.008 0.148-0.014zM4.675 3.854l-0.148 0.098c0.049-0.033 0.098-0.066 0.148-0.098zM4.153 4.234l-0.071 0.057c0.025-0.019 0.046-0.038 0.071-0.057zM3.291 5.082l-0.060 0.074c0.022-0.025 0.041-0.049 0.060-0.074zM2.952 5.527l-0.098 0.148c0.033-0.049 0.066-0.098 0.098-0.148zM1.913 8.319l-0.014 0.148c0.003-0.049 0.008-0.098 0.014-0.148zM1.897 9.536l0.014 0.148c-0.003-0.049-0.008-0.098-0.014-0.148zM2.854 12.322l0.098 0.148c-0.033-0.046-0.066-0.096-0.098-0.148zM2.969 12.495l1.091-0.73-0.12-0.183-1.091 0.73c-0.495-0.768-0.82-1.652-0.93-2.603l0.654-0.066-0.022-0.219-0.654 0.066c-0.011-0.126-0.016-0.254-0.019-0.383h1.313v-0.219h-1.313c0.003-0.129 0.008-0.254 0.019-0.383l0.654 0.063 0.022-0.219-0.654-0.063c0.109-0.952 0.437-1.835 0.932-2.603l1.091 0.73 0.12-0.183-1.094-0.725c0.074-0.104 0.148-0.208 0.227-0.306l0.506 0.416 0.139-0.17-0.506-0.416c0.082-0.098 0.17-0.191 0.257-0.284l0.927 0.927 0.156-0.156-0.927-0.927c0.093-0.088 0.186-0.175 0.282-0.257l0.416 0.509 0.17-0.139-0.416-0.506c0.101-0.079 0.202-0.156 0.306-0.23l0.73 1.091 0.183-0.12-0.73-1.091c0.768-0.495 1.652-0.82 2.603-0.93l0.066 0.654 0.219-0.022-0.066-0.654c0.126-0.011 0.254-0.016 0.383-0.019v1.313h0.219v-1.313c0.129 0.003 0.254 0.008 0.383 0.019l-0.063 0.654 0.219 0.022 0.063-0.654c0.952 0.109 1.835 0.438 2.603 0.932l-0.73 1.091 0.183 0.12 0.73-1.091c0.104 0.074 0.208 0.148 0.306 0.227l-0.416 0.506 0.17 0.139 0.416-0.506c0.098 0.082 0.191 0.17 0.284 0.257l-0.35 0.342-4.785 3.191-3.191 4.785-0.342 0.342c-0.087-0.093-0.175-0.186-0.257-0.282l0.506-0.416-0.139-0.17-0.506 0.416c-0.079-0.098-0.153-0.202-0.227-0.306zM3.291 12.918c-0.019-0.025-0.038-0.046-0.057-0.071l0.057 0.071zM4.082 13.709l0.071 0.057c-0.025-0.019-0.046-0.038-0.071-0.057zM4.527 14.045l0.148 0.098c-0.049-0.030-0.098-0.063-0.148-0.098zM7.319 15.087l0.148 0.014c-0.049-0.003-0.098-0.008-0.148-0.014zM8.536 15.103l0.145-0.014c-0.049 0.003-0.096 0.008-0.145 0.014zM11.325 14.146l0.148-0.098c-0.049 0.033-0.098 0.066-0.148 0.098zM11.847 13.766l0.074-0.060c-0.025 0.022-0.049 0.041-0.074 0.060zM12.326 13.337l0.011-0.011c-0.003 0.003-0.008 0.008-0.011 0.011zM12.709 12.918l0.060-0.074c-0.022 0.025-0.041 0.049-0.060 0.074zM12.804 12.801l-0.506-0.416-0.139 0.17 0.506 0.416c-0.082 0.098-0.17 0.191-0.257 0.284l-0.927-0.927-0.156 0.156 0.927 0.927c-0.093 0.088-0.186 0.175-0.282 0.257l-0.416-0.509-0.17 0.139 0.416 0.506c-0.101 0.079-0.202 0.156-0.306 0.23l-0.73-1.091-0.183 0.12 0.73 1.091c-0.768 0.495-1.652 0.82-2.603 0.93l-0.066-0.654-0.219 0.022 0.066 0.654c-0.126 0.011-0.254 0.016-0.383 0.019v-1.313h-0.219v1.313c-0.129-0.003-0.254-0.008-0.383-0.019l0.063-0.654-0.219-0.022-0.063 0.654c-0.952-0.109-1.835-0.438-2.603-0.932l0.73-1.091-0.183-0.12-0.725 1.091c-0.104-0.074-0.208-0.148-0.306-0.227l0.416-0.506-0.17-0.139-0.416 0.506c-0.098-0.082-0.191-0.17-0.284-0.257l0.345-0.342 4.785-3.191 3.191-4.785 0.342-0.342c0.088 0.093 0.175 0.186 0.257 0.282l-0.506 0.416 0.139 0.17 0.506-0.416c0.079 0.101 0.156 0.202 0.23 0.306l-1.091 0.73 0.12 0.183 1.091-0.73c0.495 0.768 0.82 1.652 0.93 2.603l-0.654 0.066 0.022 0.219 0.654-0.066c0.011 0.126 0.016 0.254 0.019 0.383h-1.313v0.219h1.313c-0.003 0.129-0.008 0.254-0.019 0.383l-0.654-0.063-0.022 0.219 0.654 0.063c-0.109 0.952-0.438 1.835-0.932 2.603l-1.091-0.73-0.12 0.183 1.091 0.73c-0.071 0.098-0.148 0.2-0.227 0.301zM14.103 9.533c-0.005 0.049-0.008 0.098-0.014 0.148l0.014-0.148zM13.146 12.325c-0.033 0.049-0.066 0.098-0.098 0.148l0.098-0.148z"></path>
<path class="path2" d="M6.914 2.972l0.256 1.287-0.215 0.043-0.256-1.287 0.215-0.043z"></path>
<path class="path3" d="M9.089 15.029l-0.256-1.287 0.215-0.043 0.256 1.287-0.215 0.043z"></path>
<path class="path4" d="M6.327 3.106l0.191 0.628-0.209 0.064-0.191-0.628 0.209-0.064z"></path>
<path class="path5" d="M9.674 14.891l-0.191-0.628 0.209-0.064 0.191 0.628-0.209 0.064z"></path>
<path class="path6" d="M5.758 3.3l0.502 1.213-0.202 0.084-0.502-1.213 0.202-0.084z"></path>
<path class="path7" d="M10.244 14.701l-0.502-1.213 0.202-0.084 0.502 1.213-0.202 0.084z"></path>
<path class="path8" d="M5.014 3.65l0.193-0.103 0.309 0.579-0.193 0.103-0.309-0.579z"></path>
<path class="path9" d="M10.982 14.35l-0.193 0.103-0.309-0.579 0.193-0.103 0.309 0.579z"></path>
<path class="path10" d="M2.649 6.017l0.579 0.309-0.103 0.193-0.579-0.309 0.103-0.193z"></path>
<path class="path11" d="M13.349 11.983l-0.579-0.309 0.103-0.193 0.579 0.309-0.103 0.193z"></path>
<path class="path12" d="M3.513 7.259l-1.213-0.502 0.084-0.202 1.213 0.502-0.084 0.202z"></path>
<path class="path13" d="M12.489 10.74l1.213 0.502-0.084 0.202-1.213-0.502 0.084-0.202z"></path>
<path class="path14" d="M2.17 7.119l0.628 0.19-0.063 0.209-0.628-0.19 0.063-0.209z"></path>
<path class="path15" d="M13.828 10.882l-0.628-0.19 0.063-0.209 0.628 0.19-0.063 0.209z"></path>
<path class="path16" d="M2.013 7.698l1.287 0.256-0.043 0.215-1.287-0.256 0.043-0.215z"></path>
<path class="path17" d="M13.985 10.302l-1.287-0.256 0.043-0.215 1.287 0.256-0.043 0.215z"></path>
<path class="path18" d="M1.97 10.088l1.287-0.256 0.043 0.215-1.287 0.256-0.043-0.215z"></path>
<path class="path19" d="M14.027 7.912l-1.287 0.256-0.043-0.215 1.287-0.256 0.043 0.215z"></path>
<path class="path20" d="M2.107 10.675l0.628-0.191 0.064 0.209-0.628 0.191-0.064-0.209z"></path>
<path class="path21" d="M13.892 7.328l-0.628 0.191-0.064-0.209 0.628-0.191 0.064 0.209z"></path>
<path class="path22" d="M2.383 11.446l-0.084-0.202 1.213-0.502 0.084 0.202-1.213 0.502z"></path>
<path class="path23" d="M13.616 6.556l0.084 0.202-1.213 0.502-0.084-0.202 1.213-0.502z"></path>
<path class="path24" d="M2.652 11.984l-0.103-0.193 0.579-0.309 0.103 0.193-0.579 0.309z"></path>
<path class="path25" d="M13.352 6.017l0.103 0.193-0.579 0.309-0.103-0.193 0.579-0.309z"></path>
<path class="path26" d="M5.209 14.453l-0.193-0.103 0.309-0.579 0.193 0.103-0.309 0.579z"></path>
<path class="path27" d="M10.79 3.546l0.193 0.103-0.309 0.579-0.193-0.103 0.309-0.579z"></path>
<path class="path28" d="M5.556 14.616l0.502-1.213 0.202 0.084-0.502 1.213-0.202-0.084z"></path>
<path class="path29" d="M10.446 3.382l-0.502 1.213-0.202-0.084 0.502-1.213 0.202 0.084z"></path>
<path class="path30" d="M6.327 14.893l-0.209-0.064 0.191-0.628 0.209 0.064-0.191 0.628z"></path>
<path class="path31" d="M9.673 3.106l0.209 0.063-0.19 0.628-0.209-0.063 0.19-0.628z"></path>
<path class="path32" d="M6.913 15.027l-0.215-0.043 0.256-1.287 0.215 0.043-0.256 1.287z"></path>
<path class="path33" d="M9.087 2.97l0.215 0.043-0.256 1.287-0.215-0.043 0.256-1.287z"></path>
</symbol>
<symbol id="icon-opera" viewBox="0 0 16 16">
<title>opera</title>
<path class="path1" d="M15 9v0 0c0 2.073-0.902 3.938-2.335 5.217-1.796 0.875-3.47 0.262-4.022-0.12 1.764-0.386 3.095-2.518 3.095-5.097s-1.332-4.711-3.095-5.1c0.555-0.383 2.229-0.995 4.022-0.12 1.433 1.282 2.335 3.147 2.335 5.22v0 0z"></path>
<path class="path2" d="M5.695 5.054c-0.774 0.913-1.274 2.264-1.307 3.782 0 0.003 0 0.325 0 0.331 0.033 1.515 0.536 2.866 1.31 3.779 1.004 1.304 2.496 2.13 4.164 2.13 1.025 0 1.985-0.312 2.805-0.856-1.241 1.107-2.877 1.78-4.668 1.78-0.112 0-0.224-0.003-0.334-0.008-3.711-0.175-6.666-3.238-6.666-6.992 0-3.866 3.134-7 7-7 0.008 0 0.016 0 0.027 0 1.783 0.005 3.407 0.678 4.64 1.783-0.82-0.544-1.78-0.859-2.805-0.859-1.668 0-3.161 0.826-4.167 2.13z"></path>
</symbol>
<symbol id="icon-git" viewBox="0 0 16 16">
<title>git</title>
<path class="path1" d="M14.748 8.275l-6.123-6.123c-0.352-0.353-0.924-0.353-1.277 0l-1.423 1.423 1.071 1.071c0.172-0.082 0.364-0.128 0.567-0.128 0.726 0 1.315 0.589 1.315 1.315 0 0.203-0.046 0.395-0.128 0.567l1.753 1.753c0.172-0.082 0.364-0.128 0.567-0.128 0.726 0 1.315 0.589 1.315 1.315s-0.589 1.315-1.315 1.315-1.315-0.589-1.315-1.315c0-0.203 0.046-0.395 0.128-0.567l-1.753-1.753c-0.042 0.020-0.085 0.038-0.129 0.053v3.656c0.511 0.181 0.877 0.667 0.877 1.24 0 0.726-0.589 1.315-1.315 1.315s-1.315-0.589-1.315-1.315c0-0.572 0.366-1.059 0.877-1.24v-3.656c-0.511-0.181-0.877-0.667-0.877-1.24 0-0.203 0.046-0.395 0.128-0.567l-1.071-1.071-4.053 4.052c-0.353 0.353-0.353 0.925 0 1.278l6.124 6.123c0.353 0.353 0.924 0.353 1.277 0l6.095-6.095c0.353-0.353 0.353-0.925-0-1.278z"></path>
</symbol>
</defs>
</svg>
